<svg id="Layer_1" data-name="Layer 1" xmlns="http://www.w3.org/2000/svg" xmlns:xlink="http://www.w3.org/1999/xlink" viewBox="0 0 2633.19 2090.75"><defs><style>.cls-1{fill:#ededed;}.cls-2{clip-path:url(#clip-path);}.cls-3{fill:url(#linear-gradient);}.cls-4{fill:url(#linear-gradient-2);}.cls-5{fill:url(#linear-gradient-4);}.cls-6{fill:url(#linear-gradient-6);}.cls-7{fill:url(#linear-gradient-8);}.cls-8{fill:url(#linear-gradient-10);}.cls-9{fill:url(#linear-gradient-12);}.cls-10{fill:url(#linear-gradient-14);}.cls-11{fill:url(#linear-gradient-16);}.cls-12{fill:url(#linear-gradient-18);}.cls-13{fill:url(#linear-gradient-20);}.cls-14{fill:url(#linear-gradient-22);}.cls-15{fill:url(#linear-gradient-24);}.cls-16{fill:url(#linear-gradient-26);}.cls-17{fill:url(#linear-gradient-28);}.cls-18{fill:url(#linear-gradient-30);}.cls-19{fill:url(#linear-gradient-32);}.cls-20{fill:url(#linear-gradient-34);}.cls-21{fill:url(#linear-gradient-36);}.cls-22{fill:url(#linear-gradient-38);}.cls-23{fill:url(#linear-gradient-40);}.cls-24{fill:url(#linear-gradient-42);}.cls-25{fill:url(#linear-gradient-44);}.cls-26{fill:url(#linear-gradient-46);}.cls-27{fill:url(#linear-gradient-48);}.cls-28{fill:url(#linear-gradient-50);}.cls-29{fill:url(#linear-gradient-52);}.cls-30{fill:url(#linear-gradient-54);}.cls-31{fill:url(#linear-gradient-56);}.cls-32{fill:url(#linear-gradient-58);}.cls-33{fill:url(#linear-gradient-60);}.cls-34{fill:url(#linear-gradient-62);}.cls-35{fill:url(#linear-gradient-64);}.cls-36{fill:url(#linear-gradient-66);}.cls-37{fill:url(#linear-gradient-68);}.cls-38{fill:url(#linear-gradient-70);}.cls-39{fill:url(#linear-gradient-72);}.cls-40{fill:url(#linear-gradient-74);}.cls-41{fill:url(#linear-gradient-76);}.cls-42{fill:url(#linear-gradient-78);}.cls-43{fill:url(#linear-gradient-80);}.cls-44{fill:url(#linear-gradient-82);}.cls-45{fill:url(#linear-gradient-84);}.cls-46{fill:url(#linear-gradient-86);}.cls-47{fill:url(#linear-gradient-87);}.cls-48{fill:url(#linear-gradient-88);}.cls-49{fill:url(#linear-gradient-89);}.cls-50{fill:url(#linear-gradient-90);}.cls-51{fill:url(#linear-gradient-91);}.cls-52{fill:url(#linear-gradient-92);}</style><clipPath id="clip-path" transform="translate(313.6 641.37)"><rect class="cls-1" x="1" y="-264" width="2004" height="1336"/></clipPath><linearGradient id="linear-gradient" x1="638.96" y1="-3139.37" x2="379.72" y2="-3206.12" gradientTransform="translate(1917.01 -1569.87) rotate(180)" gradientUnits="userSpaceOnUse"><stop offset="0" stop-color="#fff"/><stop offset="0.29" stop-color="#f3f3f3"/><stop offset="0.82" stop-color="#d3d3d3"/><stop offset="1" stop-color="#c7c7c7"/></linearGradient><linearGradient id="linear-gradient-2" x1="447.7" y1="-3103.63" x2="214.34" y2="-3163.72" gradientTransform="translate(2058.23 -1451.64) rotate(-172.25)" xlink:href="#linear-gradient"/><linearGradient id="linear-gradient-4" x1="264.83" y1="-3045.48" x2="54.04" y2="-3099.75" gradientTransform="translate(2183.43 -1315.03) rotate(-164.5)" xlink:href="#linear-gradient"/><linearGradient id="linear-gradient-6" x1="91.06" y1="-2965.42" x2="-101.95" y2="-3015.11" gradientTransform="matrix(-0.92, -0.39, 0.39, -0.92, 2288.24, -1163.53)" xlink:href="#linear-gradient"/><linearGradient id="linear-gradient-8" x1="-69.89" y1="-2864.05" x2="-251.3" y2="-2910.76" gradientTransform="matrix(-0.86, -0.52, 0.52, -0.86, 2371.84, -999.18)" xlink:href="#linear-gradient"/><linearGradient id="linear-gradient-10" x1="-215.34" y1="-2742.4" x2="-392.17" y2="-2787.94" gradientTransform="matrix(-0.78, -0.63, 0.63, -0.78, 2432.84, -824.77)" xlink:href="#linear-gradient"/><linearGradient id="linear-gradient-12" x1="-343.68" y1="-2601.14" x2="-523.19" y2="-2647.36" gradientTransform="matrix(-0.69, -0.73, 0.73, -0.69, 2468.93, -643.65)" xlink:href="#linear-gradient"/><linearGradient id="linear-gradient-14" x1="-452.16" y1="-2442.9" x2="-641.55" y2="-2491.66" gradientTransform="translate(2480.85 -459.39) rotate(-125.75)" xlink:href="#linear-gradient"/><linearGradient id="linear-gradient-16" x1="-538.92" y1="-2269.53" x2="-744.63" y2="-2322.5" gradientTransform="translate(2468.21 -275.16) rotate(-118)" xlink:href="#linear-gradient"/><linearGradient id="linear-gradient-18" x1="-603.16" y1="-2083.11" x2="-830.35" y2="-2141.6" gradientTransform="matrix(-0.35, -0.94, 0.94, -0.35, 2430.52, -95.16)" xlink:href="#linear-gradient"/><linearGradient id="linear-gradient-20" x1="-641.83" y1="-1886.31" x2="-894.22" y2="-1951.29" gradientTransform="matrix(-0.22, -0.98, 0.98, -0.22, 2368.86, 79.14)" xlink:href="#linear-gradient"/><linearGradient id="linear-gradient-22" x1="-655.21" y1="-1682.52" x2="-934.59" y2="-1754.46" gradientTransform="translate(2284.17 242.86) rotate(-94.76)" xlink:href="#linear-gradient"/><linearGradient id="linear-gradient-24" x1="-641.39" y1="-1474.67" x2="-947.65" y2="-1553.52" gradientTransform="matrix(0.05, -1, 1, 0.05, 2177.27, 394.25)" xlink:href="#linear-gradient"/><linearGradient id="linear-gradient-26" x1="-601.23" y1="-1268.6" x2="-932.29" y2="-1353.84" gradientTransform="translate(2052.45 529.38) rotate(-79.26)" xlink:href="#linear-gradient"/><linearGradient id="linear-gradient-28" x1="-533.9" y1="-1067.02" x2="-885.89" y2="-1157.65" gradientTransform="translate(1910.13 646.78) rotate(-71.51)" xlink:href="#linear-gradient"/><linearGradient id="linear-gradient-30" x1="-439.77" y1="-874.2" x2="-807.33" y2="-968.84" gradientTransform="translate(1752.64 744.39) rotate(-63.76)" xlink:href="#linear-gradient"/><linearGradient id="linear-gradient-32" x1="-321.5" y1="-694.86" x2="-698.02" y2="-791.81" gradientTransform="translate(1583.99 819.16) rotate(-56.01)" xlink:href="#linear-gradient"/><linearGradient id="linear-gradient-34" x1="-180.46" y1="-533.16" x2="-558.72" y2="-630.56" gradientTransform="matrix(0.67, -0.75, 0.75, 0.67, 1407.21, 870.26)" xlink:href="#linear-gradient"/><linearGradient id="linear-gradient-36" x1="-17.8" y1="-392.39" x2="-390.53" y2="-488.36" gradientTransform="translate(1224.27 897.19) rotate(-40.51)" xlink:href="#linear-gradient"/><linearGradient id="linear-gradient-38" x1="163.43" y1="-276.52" x2="-196.88" y2="-369.29" gradientTransform="translate(1038.97 899.41) rotate(-32.76)" xlink:href="#linear-gradient"/><linearGradient id="linear-gradient-40" x1="358.45" y1="-189.01" x2="16.62" y2="-277.03" gradientTransform="translate(856.15 876.58) rotate(-25.01)" xlink:href="#linear-gradient"/><linearGradient id="linear-gradient-42" x1="564.93" y1="-132.5" x2="246.2" y2="-214.57" gradientTransform="translate(677.84 830.23) rotate(-17.26)" xlink:href="#linear-gradient"/><linearGradient id="linear-gradient-44" x1="777.97" y1="-105.59" x2="485.4" y2="-180.92" gradientTransform="translate(507.32 758.15) rotate(-9.52)" xlink:href="#linear-gradient"/><linearGradient id="linear-gradient-46" x1="993.68" y1="-112.66" x2="728.32" y2="-180.99" gradientTransform="translate(348.1 665.22) rotate(-1.77)" xlink:href="#linear-gradient"/><linearGradient id="linear-gradient-48" x1="1208.03" y1="-152.13" x2="968.94" y2="-213.69" gradientTransform="translate(202.28 551.58) rotate(5.99)" xlink:href="#linear-gradient"/><linearGradient id="linear-gradient-50" x1="1414.65" y1="-222.55" x2="1199.12" y2="-278.05" gradientTransform="matrix(0.97, 0.24, -0.24, 0.97, 74.35, 419.21)" xlink:href="#linear-gradient"/><linearGradient id="linear-gradient-52" x1="1611.69" y1="-323.68" x2="1415.09" y2="-374.3" gradientTransform="translate(-36.04 271.24) rotate(21.49)" xlink:href="#linear-gradient"/><linearGradient id="linear-gradient-54" x1="1793.27" y1="-450.8" x2="1609.77" y2="-498.05" gradientTransform="translate(-124.58 109.02) rotate(29.24)" xlink:href="#linear-gradient"/><linearGradient id="linear-gradient-56" x1="1955.71" y1="-602.17" x2="1778.48" y2="-647.81" gradientTransform="translate(-190.35 -63.22) rotate(36.98)" xlink:href="#linear-gradient"/><linearGradient id="linear-gradient-58" x1="2096.18" y1="-773.61" x2="1917.91" y2="-819.51" gradientTransform="matrix(0.71, 0.7, -0.7, 0.71, -232.26, -242.95)" xlink:href="#linear-gradient"/><linearGradient id="linear-gradient-60" x1="2211.91" y1="-961.88" x2="2025.34" y2="-1009.92" gradientTransform="matrix(0.61, 0.79, -0.79, 0.61, -250.15, -426.5)" xlink:href="#linear-gradient"/><linearGradient id="linear-gradient-62" x1="2300.7" y1="-1160.69" x2="2099.26" y2="-1212.56" gradientTransform="matrix(0.5, 0.87, -0.87, 0.5, -242.06, -611.37)" xlink:href="#linear-gradient"/><linearGradient id="linear-gradient-64" x1="2360.46" y1="-1368.67" x2="2138.54" y2="-1425.81" gradientTransform="matrix(0.37, 0.93, -0.93, 0.37, -210.61, -792.67)" xlink:href="#linear-gradient"/><linearGradient id="linear-gradient-66" x1="2391.36" y1="-1577.74" x2="2144.98" y2="-1641.18" gradientTransform="matrix(0.25, 0.97, -0.97, 0.25, -153.3, -968.81)" xlink:href="#linear-gradient"/><linearGradient id="linear-gradient-68" x1="2392.72" y1="-1787.28" x2="2119.5" y2="-1857.63" gradientTransform="translate(-74.3 -1135.76) rotate(83.48)" xlink:href="#linear-gradient"/><linearGradient id="linear-gradient-70" x1="2363.8" y1="-1991.21" x2="2063.51" y2="-2068.52" gradientTransform="matrix(-0.02, 1, -1, -0.02, 26.58, -1289.53)" xlink:href="#linear-gradient"/><linearGradient id="linear-gradient-72" x1="2308.12" y1="-2185.4" x2="1982.37" y2="-2269.27" gradientTransform="translate(148.49 -1429.17) rotate(98.98)" xlink:href="#linear-gradient"/><linearGradient id="linear-gradient-74" x1="2224.46" y1="-2367.54" x2="1876.84" y2="-2457.05" gradientTransform="translate(287.3 -1549.79) rotate(106.73)" xlink:href="#linear-gradient"/><linearGradient id="linear-gradient-76" x1="2117.84" y1="-2535.1" x2="1753.34" y2="-2628.96" gradientTransform="translate(441.67 -1651.8) rotate(114.48)" xlink:href="#linear-gradient"/><linearGradient id="linear-gradient-78" x1="1989.09" y1="-2686.31" x2="1614" y2="-2782.89" gradientTransform="translate(607.68 -1732.47) rotate(122.23)" xlink:href="#linear-gradient"/><linearGradient id="linear-gradient-80" x1="1840.66" y1="-2817.78" x2="1462.14" y2="-2915.24" gradientTransform="translate(782.98 -1789.15) rotate(129.98)" xlink:href="#linear-gradient"/><linearGradient id="linear-gradient-82" x1="1676.42" y1="-2928.03" x2="1301.83" y2="-3024.48" gradientTransform="matrix(-0.74, 0.67, -0.67, -0.74, 964.85, -1821.15)" xlink:href="#linear-gradient"/><linearGradient id="linear-gradient-84" x1="1499.12" y1="-3017.78" x2="1135.47" y2="-3111.41" gradientTransform="matrix(-0.82, 0.57, -0.57, -0.82, 1148.74, -1829.35)" xlink:href="#linear-gradient"/><linearGradient id="linear-gradient-86" x1="1312.74" y1="-3084.91" x2="966.26" y2="-3174.12" gradientTransform="translate(1332.76 -1812.56) rotate(153.22)" xlink:href="#linear-gradient"/><linearGradient id="linear-gradient-87" x1="1344.5" y1="-3075.14" x2="994.77" y2="-3165.19" gradientTransform="translate(1302.5 -1816.95) rotate(151.93)" xlink:href="#linear-gradient"/><linearGradient id="linear-gradient-88" x1="1119.67" y1="-3129.13" x2="795.39" y2="-3212.62" gradientTransform="translate(1512.53 -1770.99) rotate(160.97)" xlink:href="#linear-gradient"/><linearGradient id="linear-gradient-89" x1="1178.45" y1="-3117.76" x2="847.07" y2="-3203.09" gradientTransform="translate(1459.35 -1785.52) rotate(158.64)" xlink:href="#linear-gradient"/><linearGradient id="linear-gradient-90" x1="923.91" y1="-3150.36" x2="625.19" y2="-3227.28" gradientTransform="matrix(-0.98, 0.2, -0.2, -0.98, 1685.63, -1705.63)" xlink:href="#linear-gradient"/><linearGradient id="linear-gradient-91" x1="1000.39" y1="-3144.49" x2="691.42" y2="-3224.04" gradientTransform="translate(1618.79 -1733.6) rotate(165.69)" xlink:href="#linear-gradient"/><linearGradient id="linear-gradient-92" x1="820.66" y1="-3152.11" x2="536.12" y2="-3225.38" gradientTransform="matrix(-0.99, 0.13, -0.13, -0.99, 1772.3, -1661.98)" xlink:href="#linear-gradient"/></defs><title>background</title><rect class="cls-1" x="314.6" y="377.37" width="2004" height="1336"/><g class="cls-2"><polygon class="cls-3" points="1317.2 1045.89 1407.63 2089.98 1226.77 2089.98 1317.2 1045.89"/><polygon class="cls-4" points="1317.2 1045.89 1229.59 2090.13 1050.38 2070.76 1317.2 1045.89"/><polygon class="cls-4" points="1317.2 1045.89 1229.59 2090.13 1050.38 2070.76 1317.2 1045.89"/><polygon class="cls-5" points="1317.2 1045.89 1053.15 2071.21 878.87 2032.82 1317.2 1045.89"/><polygon class="cls-5" points="1317.2 1045.89 1053.15 2071.21 878.87 2032.82 1317.2 1045.89"/><polygon class="cls-6" points="1317.2 1045.89 881.54 2033.56 715.37 1976.85 1317.2 1045.89"/><polygon class="cls-6" points="1317.2 1045.89 881.54 2033.56 715.37 1976.85 1317.2 1045.89"/><polygon class="cls-7" points="1317.2 1045.89 717.88 1977.87 562.85 1903.88 1317.2 1045.89"/><polygon class="cls-7" points="1317.2 1045.89 717.88 1977.87 562.85 1903.88 1317.2 1045.89"/><polygon class="cls-8" points="1317.2 1045.89 565.17 1905.16 424.12 1815.23 1317.2 1045.89"/><polygon class="cls-8" points="1317.2 1045.89 565.17 1905.16 424.12 1815.23 1317.2 1045.89"/><polygon class="cls-9" points="1317.2 1045.89 426.2 1816.75 301.7 1712.53 1317.2 1045.89"/><polygon class="cls-9" points="1317.2 1045.89 426.2 1816.75 301.7 1712.53 1317.2 1045.89"/><polygon class="cls-10" points="1317.2 1045.89 303.5 1714.26 197.82 1597.66 1317.2 1045.89"/><polygon class="cls-10" points="1317.2 1045.89 303.5 1714.26 197.82 1597.66 1317.2 1045.89"/><polygon class="cls-11" points="1317.2 1045.89 199.32 1599.57 114.4 1472.71 1317.2 1045.89"/><polygon class="cls-11" points="1317.2 1045.89 199.32 1599.57 114.4 1472.71 1317.2 1045.89"/><polygon class="cls-12" points="1317.2 1045.89 115.55 1474.76 52.94 1339.96 1317.2 1045.89"/><polygon class="cls-12" points="1317.2 1045.89 115.55 1474.76 52.94 1339.96 1317.2 1045.89"/><polygon class="cls-13" points="1317.2 1045.89 53.73 1342.12 14.57 1201.84 1317.2 1045.89"/><polygon class="cls-13" points="1317.2 1045.89 53.73 1342.12 14.57 1201.84 1317.2 1045.89"/><polygon class="cls-14" points="1317.2 1045.89 15 1204.06 0 1060.87 1317.2 1045.89"/><polygon class="cls-14" points="1317.2 1045.89 15 1204.06 0 1060.87 1317.2 1045.89"/><polygon class="cls-15" points="1317.2 1045.89 0.04 1063.12 9.49 919.63 1317.2 1045.89"/><polygon class="cls-15" points="1317.2 1045.89 0.04 1063.12 9.49 919.63 1317.2 1045.89"/><polygon class="cls-16" points="1317.2 1045.89 9.15 921.86 42.86 780.7 1317.2 1045.89"/><polygon class="cls-16" points="1317.2 1045.89 9.15 921.86 42.86 780.7 1317.2 1045.89"/><polygon class="cls-17" points="1317.2 1045.89 42.15 782.87 99.51 646.61 1317.2 1045.89"/><polygon class="cls-17" points="1317.2 1045.89 42.15 782.87 99.51 646.61 1317.2 1045.89"/><polygon class="cls-18" points="1317.2 1045.89 98.43 648.68 178.4 519.81 1317.2 1045.89"/><polygon class="cls-18" points="1317.2 1045.89 98.43 648.68 178.4 519.81 1317.2 1045.89"/><polygon class="cls-19" points="1317.2 1045.89 176.98 521.75 278.09 402.62 1317.2 1045.89"/><polygon class="cls-19" points="1317.2 1045.89 176.98 521.75 278.09 402.62 1317.2 1045.89"/><polygon class="cls-20" points="1317.2 1045.89 276.36 404.39 396.76 297.18 1317.2 1045.89"/><polygon class="cls-20" points="1317.2 1045.89 276.36 404.39 396.76 297.18 1317.2 1045.89"/><polygon class="cls-21" points="1317.2 1045.89 394.74 298.75 532.24 205.41 1317.2 1045.89"/><polygon class="cls-21" points="1317.2 1045.89 394.74 298.75 532.24 205.41 1317.2 1045.89"/><polygon class="cls-22" points="1317.2 1045.89 529.98 206.75 682.07 129 1317.2 1045.89"/><polygon class="cls-22" points="1317.2 1045.89 529.98 206.75 682.07 129 1317.2 1045.89"/><polygon class="cls-23" points="1317.2 1045.89 679.59 130.09 843.49 69.34 1317.2 1045.89"/><polygon class="cls-23" points="1317.2 1045.89 679.59 130.09 843.49 69.34 1317.2 1045.89"/><polygon class="cls-24" points="1317.2 1045.89 840.85 70.15 1013.56 27.51 1317.2 1045.89"/><polygon class="cls-24" points="1317.2 1045.89 840.85 70.15 1013.56 27.51 1317.2 1045.89"/><polygon class="cls-25" points="1317.2 1045.89 1010.81 28.03 1189.18 4.28 1317.2 1045.89"/><polygon class="cls-25" points="1317.2 1045.89 1010.81 28.03 1189.18 4.28 1317.2 1045.89"/><polygon class="cls-26" points="1317.2 1045.89 1186.37 4.5 1367.14 0.08 1317.2 1045.89"/><polygon class="cls-26" points="1317.2 1045.89 1186.37 4.5 1367.14 0.08 1317.2 1045.89"/><polygon class="cls-27" points="1317.2 1045.89 1364.32 0 1544.19 14.98 1317.2 1045.89"/><polygon class="cls-27" points="1317.2 1045.89 1364.32 0 1544.19 14.98 1317.2 1045.89"/><polygon class="cls-28" points="1317.2 1045.89 1541.4 14.6 1717.09 48.72 1317.2 1045.89"/><polygon class="cls-28" points="1317.2 1045.89 1541.4 14.6 1717.09 48.72 1317.2 1045.89"/><polygon class="cls-29" points="1317.2 1045.89 1714.39 48.03 1882.68 100.66 1317.2 1045.89"/><polygon class="cls-29" points="1317.2 1045.89 1714.39 48.03 1882.68 100.66 1317.2 1045.89"/><polygon class="cls-30" points="1317.2 1045.89 1880.13 99.7 2037.95 169.87 1317.2 1045.89"/><polygon class="cls-30" points="1317.2 1045.89 1880.13 99.7 2037.95 169.87 1317.2 1045.89"/><polygon class="cls-31" points="1317.2 1045.89 2035.58 168.64 2180.05 255.08 1317.2 1045.89"/><polygon class="cls-31" points="1317.2 1045.89 2035.58 168.64 2180.05 255.08 1317.2 1045.89"/><polygon class="cls-32" points="1317.2 1045.89 2177.92 253.61 2306.4 354.74 1317.2 1045.89"/><polygon class="cls-32" points="1317.2 1045.89 2177.92 253.61 2306.4 354.74 1317.2 1045.89"/><polygon class="cls-33" points="1317.2 1045.89 2304.53 353.05 2414.67 467.01 1317.2 1045.89"/><polygon class="cls-33" points="1317.2 1045.89 2304.53 353.05 2414.67 467.01 1317.2 1045.89"/><polygon class="cls-34" points="1317.2 1045.89 2413.11 465.15 2502.9 589.87 1317.2 1045.89"/><polygon class="cls-34" points="1317.2 1045.89 2413.11 465.15 2502.9 589.87 1317.2 1045.89"/><polygon class="cls-35" points="1317.2 1045.89 2501.66 587.85 2569.47 721.05 1317.2 1045.89"/><polygon class="cls-35" points="1317.2 1045.89 2501.66 587.85 2569.47 721.05 1317.2 1045.89"/><polygon class="cls-36" points="1317.2 1045.89 2568.59 718.92 2613.17 858.17 1317.2 1045.89"/><polygon class="cls-36" points="1317.2 1045.89 2568.59 718.92 2613.17 858.17 1317.2 1045.89"/><polygon class="cls-37" points="1317.2 1045.89 2612.66 855.96 2633.19 998.71 1317.2 1045.89"/><polygon class="cls-37" points="1317.2 1045.89 2612.66 855.96 2633.19 998.71 1317.2 1045.89"/><polygon class="cls-38" points="1317.2 1045.89 2633.06 996.47 2629.18 1140.12 1317.2 1045.89"/><polygon class="cls-38" points="1317.2 1045.89 2633.06 996.47 2629.18 1140.12 1317.2 1045.89"/><polygon class="cls-39" points="1317.2 1045.89 2629.43 1137.88 2601.21 1279.8 1317.2 1045.89"/><polygon class="cls-39" points="1317.2 1045.89 2629.43 1137.88 2601.21 1279.8 1317.2 1045.89"/><polygon class="cls-40" points="1317.2 1045.89 2601.84 1277.61 2549.78 1415.22 1317.2 1045.89"/><polygon class="cls-40" points="1317.2 1045.89 2601.84 1277.61 2549.78 1415.22 1317.2 1045.89"/><polygon class="cls-41" points="1317.2 1045.89 2550.77 1413.11 2475.84 1543.88 1317.2 1045.89"/><polygon class="cls-41" points="1317.2 1045.89 2550.77 1413.11 2475.84 1543.88 1317.2 1045.89"/><polygon class="cls-42" points="1317.2 1045.89 2477.18 1541.91 2380.73 1663.45 1317.2 1045.89"/><polygon class="cls-42" points="1317.2 1045.89 2477.18 1541.91 2380.73 1663.45 1317.2 1045.89"/><polygon class="cls-43" points="1317.2 1045.89 2382.4 1661.64 2266.2 1771.74 1317.2 1045.89"/><polygon class="cls-43" points="1317.2 1045.89 2382.4 1661.64 2266.2 1771.74 1317.2 1045.89"/><polygon class="cls-44" points="1317.2 1045.89 2268.16 1770.13 2134.34 1866.78 1317.2 1045.89"/><polygon class="cls-44" points="1317.2 1045.89 2268.16 1770.13 2134.34 1866.78 1317.2 1045.89"/><polygon class="cls-45" points="1317.2 1045.89 2136.55 1865.38 1987.55 1946.82 1317.2 1045.89"/><polygon class="cls-45" points="1317.2 1045.89 2136.55 1865.38 1987.55 1946.82 1317.2 1045.89"/><polygon class="cls-46" points="1317.2 1045.89 1989.98 1945.67 1828.51 2010.4 1317.2 1045.89"/><polygon class="cls-47" points="1317.2 1045.89 2015.33 1933.4 1855.74 2001 1317.2 1045.89"/><polygon class="cls-48" points="1317.2 1045.89 1831.12 2009.53 1660.14 2056.36 1317.2 1045.89"/><polygon class="cls-49" points="1317.2 1045.89 1880.03 1992.12 1711.6 2044.45 1317.2 1045.89"/><polygon class="cls-50" points="1317.2 1045.89 1662.87 2055.78 1485.5 2083.87 1317.2 1045.89"/><polygon class="cls-51" points="1317.2 1045.89 1729.55 2039.86 1554.3 2075.36 1317.2 1045.89"/><polygon class="cls-52" points="1317.2 1045.89 1571.77 2072.72 1392.34 2090.75 1317.2 1045.89"/></g></svg>