<svg id="Layer_1" data-name="Layer 1" xmlns="http://www.w3.org/2000/svg" xmlns:xlink="http://www.w3.org/1999/xlink" viewBox="0 0 135 40"><defs><style>.cls-1{fill:#a6a6a6;}.cls-10,.cls-2,.cls-3{fill:#fff;}.cls-2{stroke:#fff;stroke-miterlimit:10;stroke-width:0.2px;}.cls-4{fill:url(#linear-gradient);}.cls-5{fill:url(#linear-gradient-2);}.cls-6{fill:url(#linear-gradient-3);}.cls-7{fill:url(#linear-gradient-4);}.cls-8{opacity:0.2;}.cls-10,.cls-8,.cls-9{isolation:isolate;}.cls-9{opacity:0.12;}.cls-10{opacity:0.25;}</style><linearGradient id="linear-gradient" x1="52.8" y1="83.71" x2="36.02" y2="100.49" gradientTransform="translate(0 2)" gradientUnits="userSpaceOnUse"><stop offset="0" stop-color="#00a0ff"/><stop offset="0.01" stop-color="#00a1ff"/><stop offset="0.26" stop-color="#00beff"/><stop offset="0.51" stop-color="#00d2ff"/><stop offset="0.76" stop-color="#00dfff"/><stop offset="1" stop-color="#00e3ff"/></linearGradient><linearGradient id="linear-gradient-2" x1="64.83" y1="95" x2="40.64" y2="95" gradientTransform="translate(0 2)" gradientUnits="userSpaceOnUse"><stop offset="0" stop-color="#ffe000"/><stop offset="0.41" stop-color="#ffbd00"/><stop offset="0.78" stop-color="orange"/><stop offset="1" stop-color="#ff9c00"/></linearGradient><linearGradient id="linear-gradient-3" x1="55.83" y1="97.3" x2="33.07" y2="120.05" gradientTransform="translate(0 2)" gradientUnits="userSpaceOnUse"><stop offset="0" stop-color="#ff3a44"/><stop offset="1" stop-color="#c31162"/></linearGradient><linearGradient id="linear-gradient-4" x1="38.3" y1="75.18" x2="48.46" y2="85.34" gradientTransform="translate(0 2)" gradientUnits="userSpaceOnUse"><stop offset="0" stop-color="#32a071"/><stop offset="0.07" stop-color="#2da771"/><stop offset="0.48" stop-color="#15cf74"/><stop offset="0.8" stop-color="#06e775"/><stop offset="1" stop-color="#00f076"/></linearGradient></defs><title>google</title><rect width="135" height="40" rx="5" ry="5"/><path class="cls-1" d="M161,77.8a4.2,4.2,0,0,1,4.2,4.2v30a4.2,4.2,0,0,1-4.2,4.2H36a4.2,4.2,0,0,1-4.2-4.2h0V82A4.2,4.2,0,0,1,36,77.8H161m0-.8H36a5,5,0,0,0-5,5v30a5,5,0,0,0,5,5H161a5,5,0,0,0,5-5V82A5,5,0,0,0,161,77Z" transform="translate(-31 -77)"/><path class="cls-2" d="M78.42,87.24a2.71,2.71,0,0,1-.75,2,2.91,2.91,0,0,1-2.2.89,3.15,3.15,0,0,1-2.21-5.37,3,3,0,0,1,2.21-.9,3.1,3.1,0,0,1,1.23.25,2.47,2.47,0,0,1,.94.67l-.53.53a2,2,0,0,0-1.64-.71,2.32,2.32,0,0,0-2.33,2.31s0,.06,0,.09a2.36,2.36,0,0,0,4,1.73,1.89,1.89,0,0,0,.5-1.22H75.47v-.72h2.91A2.54,2.54,0,0,1,78.42,87.24ZM83,84.74H80.3v1.9h2.46v.72H80.3v1.9H83V90H79.5V84H83ZM86.28,90h-.77V84.74H83.83V84H88v.74H86.28Zm4.66,0V84h.77v6Zm4.19,0h-.77V84.74H92.68V84H96.8v.74H95.13Zm9.48-.78a3.12,3.12,0,0,1-4.4,0,3.24,3.24,0,0,1,0-4.45,3.1,3.1,0,0,1,4.38,0l0,0A3.23,3.23,0,0,1,104.61,89.22Zm-3.83-.5a2.31,2.31,0,0,0,3.26,0,2.56,2.56,0,0,0,0-3.44,2.31,2.31,0,0,0-3.26,0A2.56,2.56,0,0,0,100.78,88.72Zm5.8,1.28V84h.94l2.92,4.67V84h.77v6h-.8l-3.05-4.89V90Z" transform="translate(-31 -77)"/><path class="cls-3" d="M99.14,98.75a4.25,4.25,0,1,0,4.27,4.25,4.19,4.19,0,0,0-4.13-4.25Zm0,6.83a2.58,2.58,0,1,1,2.39-2.75q0,.09,0,.17a2.46,2.46,0,0,1-2.34,2.58Zm-9.31-6.83A4.25,4.25,0,1,0,94.09,103,4.19,4.19,0,0,0,90,98.75h-.13Zm0,6.83a2.58,2.58,0,1,1,2.38-2.76q0,.09,0,.18a2.46,2.46,0,0,1-2.34,2.58h-.05Zm-11.09-5.52v1.8h4.32a3.77,3.77,0,0,1-1,2.27,4.42,4.42,0,0,1-3.33,1.32,4.8,4.8,0,0,1,0-9.6A4.6,4.6,0,0,1,82,97.14l1.27-1.27A6.29,6.29,0,0,0,78.74,94a6.61,6.61,0,1,0-.51,13.21h.51a5.84,5.84,0,0,0,6.17-6.07,5.87,5.87,0,0,0-.1-1.13Zm45.31,1.4a3.92,3.92,0,0,0-7.65,1.28q0,.13,0,.26a4.16,4.16,0,0,0,4.07,4.25h.15a4.23,4.23,0,0,0,3.54-1.88l-1.45-1a2.43,2.43,0,0,1-2.09,1.18,2.16,2.16,0,0,1-2.06-1.29l5.69-2.35Zm-5.8,1.42a2.33,2.33,0,0,1,2.17-2.48h0a1.65,1.65,0,0,1,1.58.9ZM113.63,107h1.87V94.5h-1.87Zm-3.06-7.3h-.07a3,3,0,0,0-2.24-1,4.26,4.26,0,0,0,0,8.51,2.9,2.9,0,0,0,2.24-1h.06v.61c0,1.63-.87,2.5-2.27,2.5a2.35,2.35,0,0,1-2.14-1.51l-1.63.68a4.05,4.05,0,0,0,3.77,2.51c2.19,0,4-1.29,4-4.43V99h-1.72Zm-2.14,5.88a2.59,2.59,0,0,1,0-5.16,2.4,2.4,0,0,1,2.27,2.52V103a2.38,2.38,0,0,1-2.17,2.57h-.1ZM132.81,94.5h-4.47V107h1.87v-4.74h2.61a3.89,3.89,0,1,0,0-7.76Zm0,6H130.2V96.24h2.65a2.14,2.14,0,0,1,0,4.29Zm11.53-1.8a3.5,3.5,0,0,0-3.33,1.91l1.66.69a1.77,1.77,0,0,1,1.7-.92,1.8,1.8,0,0,1,2,1.58v.16a4.13,4.13,0,0,0-1.95-.48c-1.79,0-3.6,1-3.6,2.81a2.89,2.89,0,0,0,3,2.75h.08a2.63,2.63,0,0,0,2.4-1.2h.06v1h1.8v-4.81c0-2.19-1.66-3.46-3.79-3.46Zm-.23,6.85c-.61,0-1.46-.31-1.46-1.06,0-1,1.06-1.33,2-1.33a3.32,3.32,0,0,1,1.7.42,2.26,2.26,0,0,1-2.19,2ZM154.74,99l-2.14,5.42h-.06L150.32,99h-2l3.33,7.58-1.9,4.21h1.95L156.82,99Zm-16.81,8h1.87V94.5h-1.87Z" transform="translate(-31 -77)"/><path class="cls-4" d="M41.44,84.54a2,2,0,0,0-.46,1.4v22.12a2,2,0,0,0,.46,1.4l.07.07L53.9,97.15v-.29L41.51,84.47Z" transform="translate(-31 -77)"/><path class="cls-5" d="M58,101.28l-4.1-4.13v-.29L58,92.72l.09,0L63,95.56c1.4.79,1.4,2.09,0,2.89l-4.89,2.78Z" transform="translate(-31 -77)"/><path class="cls-6" d="M58.12,101.22,53.9,97,41.44,109.46a1.63,1.63,0,0,0,2.08.06l14.61-8.3" transform="translate(-31 -77)"/><path class="cls-7" d="M58.12,92.78l-14.61-8.3a1.63,1.63,0,0,0-2.08.06L53.9,97Z" transform="translate(-31 -77)"/><path class="cls-8" d="M58,101.13l-14.49,8.25a1.67,1.67,0,0,1-2,0l-.07.07.07.07a1.66,1.66,0,0,0,2,0l14.61-8.3Z" transform="translate(-31 -77)"/><path class="cls-9" d="M41.44,109.32a2,2,0,0,1-.46-1.4v.15a2,2,0,0,0,.46,1.4l.07-.07ZM63,98.3l-5,2.83.09.09L63,98.44A1.75,1.75,0,0,0,64,97,1.86,1.86,0,0,1,63,98.3Z" transform="translate(-31 -77)"/><path class="cls-10" d="M43.51,84.62,63,95.7A1.86,1.86,0,0,1,64,97a1.75,1.75,0,0,0-1-1.44L43.51,84.48c-1.4-.79-2.54-.13-2.54,1.47v.15C41,84.49,42.12,83.83,43.51,84.62Z" transform="translate(-31 -77)"/></svg>