<svg id="Layer_1" data-name="Layer 1" xmlns="http://www.w3.org/2000/svg" viewBox="0 0 157 46.52"><defs><style>.cls-1{fill:#a6a6a6;}.cls-2{fill:#fff;}</style></defs><title>ios</title><path class="cls-1" d="M175.41,113.26H29.5a5.51,5.51,0,0,1-5.5-5.5V72.24a5.5,5.5,0,0,1,5.5-5.5H175.41a5.58,5.58,0,0,1,5.59,5.5v35.52a5.59,5.59,0,0,1-5.59,5.5Z" transform="translate(-24 -66.74)"/><path d="M179.87,107.76a4.45,4.45,0,0,1-4.46,4.45H29.5A4.46,4.46,0,0,1,25,107.76V72.24a4.47,4.47,0,0,1,4.46-4.46H175.41a4.46,4.46,0,0,1,4.46,4.46v35.52Z" transform="translate(-24 -66.74)"/><path class="cls-2" d="M59,89.75a6.74,6.74,0,0,1,3.21-5.66,6.9,6.9,0,0,0-5.44-2.94c-2.29-.24-4.51,1.37-5.67,1.37s-3-1.35-4.92-1.31a7.24,7.24,0,0,0-6.09,3.72c-2.64,4.56-.67,11.27,1.85,15,1.26,1.81,2.74,3.82,4.67,3.75s2.6-1.2,4.88-1.2,2.92,1.2,4.89,1.16,3.31-1.81,4.52-3.64A14.92,14.92,0,0,0,63,95.74,6.52,6.52,0,0,1,59,89.75Z" transform="translate(-24 -66.74)"/><path class="cls-2" d="M55.32,78.73A6.64,6.64,0,0,0,56.84,74a6.76,6.76,0,0,0-4.37,2.26,6.31,6.31,0,0,0-1.56,4.58A5.58,5.58,0,0,0,55.32,78.73Z" transform="translate(-24 -66.74)"/><path class="cls-2" d="M86.39,103.38H83.75L82.3,98.83h-5l-1.38,4.55H73.32l5-15.48h3.08Zm-4.52-6.45-1.31-4q-.21-.62-.78-2.92h0q-.23,1-.73,2.92l-1.29,4Z" transform="translate(-24 -66.74)"/><path class="cls-2" d="M99.2,97.66a6.34,6.34,0,0,1-1.54,4.5,4.5,4.5,0,0,1-3.42,1.47A3.42,3.42,0,0,1,91.07,102h0v5.88H88.54v-12q0-1.79-.09-3.67h2.18L90.77,94h0a4.41,4.41,0,0,1,7.06-.44A6.15,6.15,0,0,1,99.2,97.66Zm-2.53.09a4.59,4.59,0,0,0-.73-2.69A2.54,2.54,0,0,0,93.78,94a2.58,2.58,0,0,0-1.66.61,2.82,2.82,0,0,0-1,1.6,3.25,3.25,0,0,0-.12.76v1.86a3,3,0,0,0,.75,2.06,2.47,2.47,0,0,0,1.94.84,2.54,2.54,0,0,0,2.18-1.08A4.75,4.75,0,0,0,96.67,97.75Z" transform="translate(-24 -66.74)"/><path class="cls-2" d="M112,97.66a6.34,6.34,0,0,1-1.54,4.5,4.49,4.49,0,0,1-3.42,1.47,3.42,3.42,0,0,1-3.17-1.58h0v5.88h-2.48v-12q0-1.79-.09-3.67h2.18l.14,1.77h0a4.41,4.41,0,0,1,7.06-.44A6.17,6.17,0,0,1,112,97.66Zm-2.53.09a4.59,4.59,0,0,0-.74-2.69,2.54,2.54,0,0,0-2.16-1.1,2.58,2.58,0,0,0-1.67.61,2.82,2.82,0,0,0-1,1.6,3.31,3.31,0,0,0-.12.76v1.86a3,3,0,0,0,.74,2.06,2.48,2.48,0,0,0,1.94.84,2.54,2.54,0,0,0,2.18-1.08A4.75,4.75,0,0,0,109.51,97.75Z" transform="translate(-24 -66.74)"/><path class="cls-2" d="M126.39,99a4.12,4.12,0,0,1-1.37,3.21,6.09,6.09,0,0,1-4.22,1.35,7.38,7.38,0,0,1-4-1l.57-2.07a6.8,6.8,0,0,0,3.58,1,3.39,3.39,0,0,0,2.18-.63,2.07,2.07,0,0,0,.78-1.69,2.16,2.16,0,0,0-.64-1.59,6,6,0,0,0-2.14-1.2q-4.06-1.52-4.06-4.44a3.93,3.93,0,0,1,1.42-3.13,5.62,5.62,0,0,1,3.79-1.22,7.51,7.51,0,0,1,3.51.73l-.62,2a6.09,6.09,0,0,0-3-.71,3,3,0,0,0-2,.64,1.84,1.84,0,0,0-.62,1.4,1.89,1.89,0,0,0,.71,1.52,8,8,0,0,0,2.25,1.19,7.64,7.64,0,0,1,2.94,1.88A3.93,3.93,0,0,1,126.39,99Z" transform="translate(-24 -66.74)"/><path class="cls-2" d="M134.58,94.08h-2.73V99.5q0,2.07,1.45,2.07a4.41,4.41,0,0,0,1.1-.12l.07,1.88a5.62,5.62,0,0,1-1.93.27,3,3,0,0,1-2.3-.9,4.4,4.4,0,0,1-.83-3V94.08h-1.63V92.22h1.63v-2l2.44-.73v2.78h2.73Z" transform="translate(-24 -66.74)"/><path class="cls-2" d="M146.91,97.71a6.12,6.12,0,0,1-1.47,4.23,5.25,5.25,0,0,1-4.09,1.7,5,5,0,0,1-3.91-1.63A5.93,5.93,0,0,1,136,97.89a6.06,6.06,0,0,1,1.5-4.25A5.2,5.2,0,0,1,141.54,92a5.1,5.1,0,0,1,3.95,1.63A5.87,5.87,0,0,1,146.91,97.71Zm-2.57.08a5,5,0,0,0-.67-2.65,2.45,2.45,0,0,0-2.23-1.34,2.49,2.49,0,0,0-2.27,1.34,5.12,5.12,0,0,0-.67,2.69,5,5,0,0,0,.67,2.65,2.53,2.53,0,0,0,4.48,0A5,5,0,0,0,144.34,97.79Z" transform="translate(-24 -66.74)"/><path class="cls-2" d="M155,94.4a4.31,4.31,0,0,0-.78-.07,2.34,2.34,0,0,0-2,1,3.72,3.72,0,0,0-.62,2.2v5.86h-2.48l0-7.65q0-1.93-.09-3.51h2.16l.09,2.14h.07a3.82,3.82,0,0,1,1.24-1.77,3,3,0,0,1,1.79-.6,4,4,0,0,1,.62,0Z" transform="translate(-24 -66.74)"/><path class="cls-2" d="M166.06,97.27A5.82,5.82,0,0,1,166,98.4h-7.44a3.24,3.24,0,0,0,1.08,2.53,3.68,3.68,0,0,0,2.43.78,8.23,8.23,0,0,0,3-.53l.39,1.72a9.3,9.3,0,0,1-3.74.69,5.42,5.42,0,0,1-4.08-1.53,5.64,5.64,0,0,1-1.48-4.1,6.39,6.39,0,0,1,1.38-4.2,4.75,4.75,0,0,1,3.9-1.79,4.16,4.16,0,0,1,3.65,1.79A6,6,0,0,1,166.06,97.27Zm-2.36-.64a3.37,3.37,0,0,0-.48-1.91,2.17,2.17,0,0,0-2-1,2.35,2.35,0,0,0-2,1,3.7,3.7,0,0,0-.73,1.93h5.16Z" transform="translate(-24 -66.74)"/><path class="cls-2" d="M81,78.38a3.82,3.82,0,0,1-1.23,3.09,4.89,4.89,0,0,1-3.24,1,15,15,0,0,1-1.78-.09V74.86a13.16,13.16,0,0,1,2.1-.16,4.53,4.53,0,0,1,3,.87A3.51,3.51,0,0,1,81,78.38Zm-1.29,0A2.48,2.48,0,0,0,77,75.66a5.16,5.16,0,0,0-1,.08v5.69a6.43,6.43,0,0,0,.82,0A2.88,2.88,0,0,0,79,80.68,3.12,3.12,0,0,0,79.76,78.41Z" transform="translate(-24 -66.74)"/><path class="cls-2" d="M87.86,79.58a3,3,0,0,1-.72,2.08,2.58,2.58,0,0,1-2,.84,2.45,2.45,0,0,1-1.92-.8,2.92,2.92,0,0,1-.72-2,3,3,0,0,1,.74-2.09,2.56,2.56,0,0,1,2-.81,2.51,2.51,0,0,1,1.94.8A2.89,2.89,0,0,1,87.86,79.58Zm-1.26,0a2.48,2.48,0,0,0-.33-1.3,1.2,1.2,0,0,0-1.09-.66,1.22,1.22,0,0,0-1.12.66,2.51,2.51,0,0,0-.33,1.32,2.48,2.48,0,0,0,.33,1.3,1.23,1.23,0,0,0,1.11.66,1.22,1.22,0,0,0,1.09-.67A2.46,2.46,0,0,0,86.59,79.62Z" transform="translate(-24 -66.74)"/><path class="cls-2" d="M97,76.88l-1.72,5.48H94.16L93.45,80A17.82,17.82,0,0,1,93,78.21h0A13,13,0,0,1,92.55,80l-.75,2.38H90.66l-1.61-5.48H90.3l.62,2.61q.23.92.37,1.76h0q.14-.69.45-1.75l.78-2.62h1l.75,2.56q.27.94.44,1.8h0a17.25,17.25,0,0,1,.37-1.8l.67-2.56H97Z" transform="translate(-24 -66.74)"/><path class="cls-2" d="M103.31,82.36h-1.22V79.22q0-1.45-1.1-1.45a1.1,1.1,0,0,0-.88.4,1.42,1.42,0,0,0-.34.94v3.25H98.55V78.45q0-.72,0-1.57h1.07l.06.86h0a1.76,1.76,0,0,1,.63-.66,2.06,2.06,0,0,1,1.1-.31,1.75,1.75,0,0,1,1.28.5,2.41,2.41,0,0,1,.63,1.82Z" transform="translate(-24 -66.74)"/><path class="cls-2" d="M106.67,82.36h-1.22v-8h1.22Z" transform="translate(-24 -66.74)"/><path class="cls-2" d="M113.85,79.58a3,3,0,0,1-.72,2.08,2.58,2.58,0,0,1-2,.84,2.45,2.45,0,0,1-1.92-.8,2.92,2.92,0,0,1-.72-2,3,3,0,0,1,.74-2.09,2.56,2.56,0,0,1,2-.81,2.51,2.51,0,0,1,1.94.8A2.89,2.89,0,0,1,113.85,79.58Zm-1.27,0a2.48,2.48,0,0,0-.33-1.3,1.2,1.2,0,0,0-1.09-.66,1.22,1.22,0,0,0-1.12.66,2.51,2.51,0,0,0-.33,1.32,2.48,2.48,0,0,0,.33,1.3,1.23,1.23,0,0,0,1.11.66,1.21,1.21,0,0,0,1.09-.67A2.45,2.45,0,0,0,112.58,79.62Z" transform="translate(-24 -66.74)"/><path class="cls-2" d="M119.75,82.36h-1.09l-.09-.63h0a1.88,1.88,0,0,1-1.6.76,1.65,1.65,0,0,1-1.25-.5,1.56,1.56,0,0,1-.43-1.12,1.7,1.7,0,0,1,.84-1.53,4.36,4.36,0,0,1,2.36-.52v-.1q0-1.08-1.14-1.08a2.55,2.55,0,0,0-1.43.41l-.25-.8a3.52,3.52,0,0,1,1.88-.47q2.15,0,2.15,2.27v2A8.56,8.56,0,0,0,119.75,82.36Zm-1.27-1.88v-.85q-2,0-2,1.1a.83.83,0,0,0,.23.64.85.85,0,0,0,.6.21,1.23,1.23,0,0,0,.75-.25,1,1,0,0,0,.44-.86Z" transform="translate(-24 -66.74)"/><path class="cls-2" d="M126.67,82.36h-1.08l-.06-.88h0a1.82,1.82,0,0,1-1.76,1,2.06,2.06,0,0,1-1.65-.78,3,3,0,0,1-.65-2,3.18,3.18,0,0,1,.71-2.15,2.18,2.18,0,0,1,1.69-.77,1.64,1.64,0,0,1,1.54.74h0V74.37h1.22v6.52Q126.63,81.69,126.67,82.36Zm-1.26-2.31v-.91a1.79,1.79,0,0,0,0-.38,1.39,1.39,0,0,0-.44-.74,1.2,1.2,0,0,0-.82-.3,1.25,1.25,0,0,0-1.07.54,2.32,2.32,0,0,0-.39,1.39A2.17,2.17,0,0,0,123,81a1.25,1.25,0,0,0,1.07.54,1.17,1.17,0,0,0,1-.45A1.5,1.5,0,0,0,125.41,80.05Z" transform="translate(-24 -66.74)"/><path class="cls-2" d="M137.1,79.58a3,3,0,0,1-.72,2.08,2.58,2.58,0,0,1-2,.84,2.45,2.45,0,0,1-1.92-.8,2.92,2.92,0,0,1-.72-2,3,3,0,0,1,.74-2.09,2.56,2.56,0,0,1,2-.81,2.5,2.5,0,0,1,1.94.8A2.89,2.89,0,0,1,137.1,79.58Zm-1.26,0a2.48,2.48,0,0,0-.33-1.3,1.21,1.21,0,0,0-1.09-.66,1.23,1.23,0,0,0-1.12.66,2.51,2.51,0,0,0-.33,1.32,2.48,2.48,0,0,0,.33,1.3,1.25,1.25,0,0,0,2.2,0A2.47,2.47,0,0,0,135.83,79.62Z" transform="translate(-24 -66.74)"/><path class="cls-2" d="M143.65,82.36h-1.22V79.22q0-1.45-1.11-1.45a1.1,1.1,0,0,0-.88.4,1.41,1.41,0,0,0-.34.94v3.25h-1.22V78.45q0-.72,0-1.57h1.07l.06.86h0a1.78,1.78,0,0,1,.63-.66,2.06,2.06,0,0,1,1.11-.31,1.75,1.75,0,0,1,1.27.5,2.41,2.41,0,0,1,.63,1.82Z" transform="translate(-24 -66.74)"/><path class="cls-2" d="M151.85,77.79h-1.34v2.66c0,.68.24,1,.71,1a2.15,2.15,0,0,0,.54-.06l0,.92a2.74,2.74,0,0,1-.95.14,1.46,1.46,0,0,1-1.13-.44,2.15,2.15,0,0,1-.41-1.48V77.79h-.8v-.91h.8v-1l1.19-.36v1.36h1.34v.91Z" transform="translate(-24 -66.74)"/><path class="cls-2" d="M158.3,82.36h-1.22V79.25q0-1.47-1.1-1.47a1.16,1.16,0,0,0-1.16.85,1.53,1.53,0,0,0-.06.44v3.3h-1.22v-8h1.22v3.3h0a1.84,1.84,0,0,1,1.65-.9,1.7,1.7,0,0,1,1.25.5,2.5,2.5,0,0,1,.62,1.84Z" transform="translate(-24 -66.74)"/><path class="cls-2" d="M165,79.36a2.94,2.94,0,0,1,0,.55h-3.66a1.6,1.6,0,0,0,.53,1.24,1.82,1.82,0,0,0,1.2.38,4,4,0,0,0,1.48-.26l.19.85a4.59,4.59,0,0,1-1.84.34,2.66,2.66,0,0,1-2-.75,2.76,2.76,0,0,1-.73-2,3.14,3.14,0,0,1,.68-2.06,2.33,2.33,0,0,1,1.92-.88,2,2,0,0,1,1.79.88A2.93,2.93,0,0,1,165,79.36ZM163.8,79a1.64,1.64,0,0,0-.24-.94,1.06,1.06,0,0,0-1-.51,1.16,1.16,0,0,0-1,.5,1.84,1.84,0,0,0-.36.95Z" transform="translate(-24 -66.74)"/></svg>