<svg xmlns="http://www.w3.org/2000/svg" viewBox="0 0 141.27 113.76"><defs><style>.cls-1{isolation:isolate;}.cls-2{fill:#d32527;}.cls-13,.cls-3{fill:#fd2202;}.cls-4{fill:#2f2f2f;}.cls-5{fill:#eefcff;}.cls-6{fill:#aaa;}.cls-7{fill:#131313;}.cls-8{fill:#999;}.cls-9{fill:#00b2ff;}.cls-10{fill:#c6c6c6;}.cls-11{fill:#919191;}.cls-12{fill:#2280c8;}.cls-13{font-size:4.6px;font-family:Bungee-Regular, Bungee Regular;letter-spacing:0em;}.cls-14{letter-spacing:0em;}.cls-15{fill:#d7d7d7;}.cls-16{fill:#848484;}.cls-17{fill:#71daff;}.cls-18{fill:#ffa64d;}.cls-19{opacity:0.5;mix-blend-mode:multiply;}</style></defs><title>logo4</title><g class="cls-1"><g id="Layer_1" data-name="Layer 1"><path class="cls-2" d="M29,133.42a7.46,7.46,0,0,1-.47-1.63l.19-.17.58-1.37,17.13-16.1,2,4.88-.61,1.45.06.14-2.5,2.32.19.47c.67,1.65,1.55,3.24,3,1.95a6.25,6.25,0,0,1-.32,3.12l-.31.84,0,.15,4.71-.1,2,4.88L54,135.71l.09.22-20.49.35A4.43,4.43,0,0,1,29,133.42Zm24.21,1.9-1.57-3.85-16.51.29,5.63-5.35c.67,1.65,1.31,3.76,2.91,4.57s4.19,0,3.87-3c-1.73,1.42-2.86-2.15-3.76-4.36l3.38-3.13-1.57-3.85L29.18,132c.6,2.75,2.14,3.72,4.4,3.67Zm-14.95-5.68,3.26-.06a15,15,0,0,1-1-2.1Z" transform="translate(-28.51 -38.14)"/><path class="cls-2" d="M29.25,109.91l.41-.37a8.26,8.26,0,0,1-.78-3.24,6.3,6.3,0,0,1,2-4.65c.16-.11.19-.17.19-.2s0-.09.22-.17a5.78,5.78,0,0,1-.81-1.16,0,0,0,0,0,0,0,1.22,1.22,0,0,0-.14-.28l-.14-.25s0-.09-.05-.15L30,99a7.34,7.34,0,0,1-.59-2.42,6.59,6.59,0,0,1,2-4.74c.22-.17.44-.34.66-.48l.67-.6a6.12,6.12,0,0,1,4.51-1.26l10.8.61-.28,4.93-1.18,1.05v.18c-2.08-.12-9.27-.52-11-.37l-.37.07-.08.33a2.11,2.11,0,0,0,2.24,2,4.62,4.62,0,0,1-.51,1l10.62.6-.27,4.87-1.18,1.05V106l-3.61-.2c-.63,0-1.29-.1-2-.14a37.57,37.57,0,0,0-5.37-.06c-.09,0-.19.08-.31.1a2.3,2.3,0,0,0-.09.45c-.06,1.05.78,1.73,2.1,1.81a6.44,6.44,0,0,1-.55,1.21l10.68.6-.28,4.93-1.18,1.05V116L28.78,115l.29-5.12Zm.39.63-.22,3.91,15.56.87.22-3.91-11.67-.66a2.28,2.28,0,0,0,1.36-1.16A2,2,0,0,1,33,107.28,2.41,2.41,0,0,1,35,105c1.47-.31,8.47.23,10.48.35l.22-3.85L35.45,101c-.33,0-.63,0-.93,0a2.24,2.24,0,0,0,.9-1,2.23,2.23,0,0,1-2-2.56,2.2,2.2,0,0,1,2.17-2.08c1.49-.16,8.47.23,10.48.35l.22-3.91L36,91.18a5.62,5.62,0,0,0-4.14,1.13A5.56,5.56,0,0,0,30,96.61c0,1.9.94,4.31,2.67,4.68a4.42,4.42,0,0,0-1.37.8,5.33,5.33,0,0,0-1.83,4.21c0,1.42.55,3.62,1.93,4.33Z" transform="translate(-28.51 -38.14)"/><path class="cls-2" d="M36.21,78.47a5.39,5.39,0,0,1,.51-2.84,7.77,7.77,0,0,1,5.71-4.23l.46-.18a8.72,8.72,0,0,1,6.7.54c4.77,2.38,6,7.15,4.22,10.66a7,7,0,0,1-3.22,3.21l.94.47-2.15,4.32-1.5.5-.08.16-16.64-8.3c-1.75-.87-2.42-3.33-1.08-6.13l.16.08,1.5-.5Zm11.53,7.67c5.93-2,6.58-10.09,0-13.37-4.23-2.11-8.86-.41-10.47,3.1s1.18,5.47,2.62,5.42a3.86,3.86,0,0,1,.31-3.38c2.43-4.88,10.53-1,8.05,4-1.4,2.8-4.58,2.23-7,1L30.34,77.47c-1,2.13-.37,4.06,1.08,4.78l16.1,8,1.69-3.4Zm-1.08-3.3a3.1,3.1,0,0,0,1.05-1.23c1-2.1-.14-4-1.87-4.84a4.49,4.49,0,0,0-2.47-.46,3.17,3.17,0,0,0-1.1,1.27,3.8,3.8,0,0,0,.08,3.61l-.4.14,1.11.55A7.76,7.76,0,0,0,46.66,82.84Z" transform="translate(-28.51 -38.14)"/><path class="cls-2" d="M47.64,60.33h1.58L54.87,66a9.16,9.16,0,0,0,2.22,1.83,3.16,3.16,0,0,0,.77-.55,2.34,2.34,0,0,0,.66-1.17c.21-1.24-.86-2.26-1.71-3.11l-3.42-3.4c-1.86-1.81-1.26-4.15.93-6.27l.13.13H56l5.06,5A16.76,16.76,0,0,1,64.71,63c1.18,2.92.31,5.45-1.84,7.61a7.11,7.11,0,0,1-5,2.37h-.81A6.49,6.49,0,0,1,53,72.26a18.09,18.09,0,0,1-3.65-3l-5.46-5.45,3.64-3.65Zm-2.91,3.52,5,5a18.15,18.15,0,0,0,3.5,2.85c2.82,1.44,5.37.72,7.54-1.46,2-2,2.81-4.35,1.71-7.06A15.76,15.76,0,0,0,59,58.82l-4.7-4.68c-1.68,1.6-2,3.5-.5,5L57,62.3c1,1,2.43,2.25,2.12,3.85a3.13,3.13,0,0,1-2.34,2.35c-1.6.28-2.94-1.15-4-2.17l-5.29-5.28Z" transform="translate(-28.51 -38.14)"/><path class="cls-2" d="M59.78,43.49l1.54.34,12,18.6L69.24,65l-1.54-.33-.15.1L57.46,49.14c-1.24-1.93-.38-4.16,2.22-5.8ZM58,48.81,67.72,64l3.19-2.06L59.5,44.17C57.53,45.41,56.93,47.19,58,48.81Z" transform="translate(-28.51 -38.14)"/><path class="cls-2" d="M74.83,59.07a8.78,8.78,0,0,1-5.75-5.84c-1.72-4.92.81-9.74,4.9-11a4.72,4.72,0,0,1,4.37.61l.08,0-.56-1.59,4.84-1.69.06.17,1.42.68,5.49,15.71L85,57.78l-.84-.41A6.87,6.87,0,0,1,81,59.61a7.49,7.49,0,0,1-5.74-.35Zm12.66-4L82.33,40.35l-3.7,1.29.55,1.56,1.57,4.5c.93,2.65,1.13,6-1.89,7-5.38,1.88-8.3-6.84-3-8.68a3.9,3.9,0,0,1,3.49.12c.25-1.46-1.48-4.5-5.17-3.37S68,48.45,69.65,53c2.5,7.14,10.77,7.51,13.57,1.74l.57,1.62Zm-7.3-7.18-.25-.71-.15-.07,0,.11-.21-.15a4.17,4.17,0,0,0-2,.19c-2.33.82-2.81,3.19-2.14,5.12a4.62,4.62,0,0,0,1.13,1.87,3.37,3.37,0,0,0,2.13-.11C81.25,53.25,81,50.3,80.18,47.91Z" transform="translate(-28.51 -38.14)"/><path class="cls-2" d="M93.77,38.78l.37.42a7.37,7.37,0,0,1,3.24-1,6.11,6.11,0,0,1,4.79,1.74c.18.21.37.42.52.63l.64.62a6.12,6.12,0,0,1,1.57,4.41l.16,10.82-4.88.07-1.13-1.1h-.18l-.05-3.62c0-.63,0-1.3,0-2a37.6,37.6,0,0,0-.32-5.36,1.05,1.05,0,0,0-.12-.27,1.39,1.39,0,0,0-.48-.08c-1,0-1.65.9-1.62,2.23A3.4,3.4,0,0,1,95,45.64l.16,10.88-4.91.07-1.13-1.1h-.18l-.25-16.82,5.09-.08Zm-.6.43-3.89.06.23,15.61,3.89-.06-.16-10.88v-.81a2.42,2.42,0,0,0,1.28,1.28,2,2,0,0,1,2.14-2.05,2.44,2.44,0,0,1,2.41,1.89c.41,1.44.37,8.46.4,10.48l3.86-.06-.15-10.31a5.63,5.63,0,0,0-1.42-4,5.5,5.5,0,0,0-4.33-1.56c-1.45.11-3.58.84-4.22,2.26Z" transform="translate(-28.51 -38.14)"/><path class="cls-2" d="M107.77,54.85a8.92,8.92,0,0,1,5.09-13.77,9,9,0,0,1,4.6.17,9.48,9.48,0,0,1,1.25.46,6.21,6.21,0,0,1,3.37,3.36l.47.86a4.07,4.07,0,0,1,.38,3.07,2.72,2.72,0,0,1-2.14,2l-.58-.49-.72-1.28-.2-.18a2,2,0,0,0-.1-.63,4.77,4.77,0,0,0-1.94-1.08,4.12,4.12,0,0,0-5,1.8,4.81,4.81,0,0,0-.37.93,4.23,4.23,0,0,0-.14,2.06,3.94,3.94,0,0,0,2,1.25,4.51,4.51,0,0,0,4.09-.86l2.89,3.72s-.07,0-.08.07l.77,1.42A9,9,0,0,1,108,55.31Zm10.71-12.57a8.57,8.57,0,0,0-5.51-.6c-7.43,1.73-9,13.11-.32,15.68a7.57,7.57,0,0,0,7.24-1.21l-2.15-2.81a4.53,4.53,0,0,1-4.15.62c-3.32-1-3.82-4.28-2.54-6.57,2.36-4.24,8.91-1.85,8.85,1.62C122.11,48.67,123.06,44.4,118.47,42.28Z" transform="translate(-28.51 -38.14)"/><path class="cls-2" d="M122.71,60.47a8.75,8.75,0,0,1,1.2-7.82,9.57,9.57,0,0,1,5.54-3.81,9,9,0,0,1,6.85,1.56,7.41,7.41,0,0,1,3.53,5.86l.13.67a5.64,5.64,0,0,1-.82,4.21,5.11,5.11,0,0,1-5.63,2l1.38,2.36-.14,0,.32,1.57A8.94,8.94,0,0,1,122.8,61ZM136,50.9a8.19,8.19,0,0,0-6.4-1.47c-6.23,1.34-9.76,10.28-3.08,14.82a7.52,7.52,0,0,0,7.54,1l-1.75-3.05a5.08,5.08,0,0,1-4.54-1.3c-1.57-1.5-1.39-4.12-.07-6A4.76,4.76,0,0,1,134,53.45c2.77,1.66,2.3,5.79-1.06,3.91-1.33-.72-2.88-1.67-3.31-3.23-2.67,1.79-1.23,5,3,6.57C138.72,63,142.12,55.08,136,50.9Zm-8.54,8.48a2.82,2.82,0,0,0,.72,1,4.14,4.14,0,0,0,2,1.05,4.68,4.68,0,0,1-2-2.87l-.19-.9A5.08,5.08,0,0,0,127.42,59.38Zm3.47-4.24a4.68,4.68,0,0,0,1.07.95,11.75,11.75,0,0,0,1.25.74c1,.55,1.57.48,1.8.13a1.24,1.24,0,0,0,.14-.31A3.67,3.67,0,0,0,134,55.56,4,4,0,0,0,130.89,55.14Z" transform="translate(-28.51 -38.14)"/><path class="cls-2" d="M141.11,76.48a11.8,11.8,0,0,1,6.24-8.3,12.67,12.67,0,0,1,5.82-1.45A12,12,0,0,1,163,73.21c1.29,2.35,2,5.92.9,8.12l-.26.86a3.51,3.51,0,0,1-1.71,2.17,5.44,5.44,0,0,1-3.78.27l-.28-.84.45-1.47-.06-.17a4.73,4.73,0,0,0,.68-1,7.91,7.91,0,0,0-1-4.3,7.38,7.38,0,0,0-.9-1.3,6.28,6.28,0,0,0-7.88-1.34,6.74,6.74,0,0,0-2.92,2.78,6.54,6.54,0,0,0,.63,4.34,6.39,6.39,0,0,0,1.83,2.17,12.14,12.14,0,0,0,3.92,1.67L151,89.82h0l-.51,1.54c-4.21-1.24-6.62-2.83-8.41-6.18a10.93,10.93,0,0,1-1-8.42Zm21.35-3c-1.92-3.49-4.72-6.06-9.28-6.16-7.15-.16-14.74,7.39-10.19,16,1.71,3.22,3.91,4.72,7.63,5.81l1.26-3.6a10.62,10.62,0,0,1-3.5-1.59,6.92,6.92,0,0,1,1.08-11.84A6.8,6.8,0,0,1,158,73.52c2,2.4,2.88,6.63.78,9C165.19,83.89,164.48,77.16,162.46,73.49Z" transform="translate(-28.51 -38.14)"/><path class="cls-2" d="M148.25,94.61a8.78,8.78,0,0,1,6.93-4.37c5.17-.64,9.34,2.86,9.71,7.13a4.72,4.72,0,0,1-1.53,4.13l-.05.07,1.67-.21.62,5.08-.18,0-1,1.24-16.51,2-.6-4.91.58-.74a6.86,6.86,0,0,1-1.5-3.61A7.49,7.49,0,0,1,148,94.95Zm1.2,13.21,15.49-1.9-.48-3.89-1.64.2-4.73.58c-2.78.34-6.06-.17-6.45-3.34-.69-5.65,8.44-6.65,9.12-1.12a3.89,3.89,0,0,1-.86,3.38c1.37.56,4.71-.49,4.39-4.33s-4.22-7.16-9-6.57c-7.51.92-9.62,8.92-4.58,12.89l-1.71.21Zm8.57-5.61.75-.09.11-.13-.1,0,.19-.18a4.16,4.16,0,0,0,.24-2c-.3-2.45-2.52-3.43-4.55-3.18a4.63,4.63,0,0,0-2.07.71,3.38,3.38,0,0,0-.35,2.11C152.58,102.13,155.51,102.53,158,102.22Z" transform="translate(-28.51 -38.14)"/><path class="cls-2" d="M163.23,118.51a5.41,5.41,0,0,1,.21,2.88,7.77,7.77,0,0,1-4.49,5.5l-.4.28a8.72,8.72,0,0,1-6.63,1.13c-5.21-1.13-7.55-5.46-6.72-9.29a6.94,6.94,0,0,1,2.33-3.91l-1-.22,1-4.71,1.33-.86,0-.18,18.18,3.93c1.92.42,3.16,2.63,2.57,5.67l-.18,0-1.33.86Zm-13.07-4.59c-5.24,3.43-3.89,11.4,3.3,13,4.63,1,8.68-1.79,9.38-5.59s-2.49-5-3.88-4.6a3.85,3.85,0,0,1,.54,3.35c-1.15,5.33-10,3.55-8.78-1.87.66-3.07,3.89-3.29,6.57-2.71L169.17,118c.44-2.31-.64-4-2.23-4.37l-17.59-3.81-.8,3.71Zm1.86,2.93a3.08,3.08,0,0,0-.71,1.45c-.5,2.3,1.12,3.82,3,4.23a4.49,4.49,0,0,0,2.5-.17,3.18,3.18,0,0,0,.76-1.5,3.8,3.8,0,0,0-1-3.48l.36-.23-1.21-.26A7.76,7.76,0,0,0,152,116.86Z" transform="translate(-28.51 -38.14)"/><path class="cls-2" d="M150.58,131.9a5,5,0,0,1,4.79,0c2.86,1.56,3.15,5.05,1.55,7.68a4.7,4.7,0,0,1-3.63,2.55l-.87.28a3.07,3.07,0,0,1-2.35-.22,2.91,2.91,0,0,1-1.5-2.85l.6-.46,1.45-.45a2.41,2.41,0,0,0,.92-1.32v-.27l-.31.25a9.88,9.88,0,0,1-4.71,2.27l-.59.2a4.91,4.91,0,0,1-3.9-.41c-3-1.63-3.3-5.1-1.8-7.85a7.69,7.69,0,0,1,4.61-3.6l.46-.16a8.18,8.18,0,0,1,2.4-.68l1.5,4.49c-1.9.4-3,1.16-3.36,1.88-.29.53-.29,1,0,1.19h0a.13.13,0,0,1,.14-.06,14.77,14.77,0,0,1,4.09-2.27Zm5.82,7.33c1.42-2.35,1.19-5.46-1.32-6.83s-4.8.23-7.18,1.89c-3.72,2.61-4.09-2.44.53-3.42l-1.12-3.36c-5.58.84-7.94,8.2-3.39,10.68,3.89,2.12,7.12-2.29,8.73-2.65.67-.15,1.14.42,1,1.17a2.89,2.89,0,0,1-2.94,2.17C150.46,141.38,154,143.19,156.41,139.24Z" transform="translate(-28.51 -38.14)"/><path class="cls-3" d="M53.2,114.43h-.85a1.28,1.28,0,0,1-1-.46,1.48,1.48,0,0,1-.33-1.08l.24-2.65A1.35,1.35,0,0,1,52.58,109h.62Z" transform="translate(-28.51 -38.14)"/><rect class="cls-4" x="29.79" y="76.29" width="79.09" height="6.35"/><path class="cls-5" d="M116.09,107.64V88.93l.45.61h0l10.65,14.35,10,2.28a4.52,4.52,0,0,1,2.41,1.47Z" transform="translate(-28.51 -38.14)"/><path class="cls-5" d="M140.88,111.61H116.09v-1.32h24.68c0,.09,0,.19,0,.28Z" transform="translate(-28.51 -38.14)"/><polygon class="cls-5" points="88.82 72.14 88.82 73.47 23.92 73.47 24.01 72.14 88.82 72.14"/><path class="cls-5" d="M117.32,92.37v15.27H52.7l1.06-21.06a6.62,6.62,0,0,1,6.4-6.39h44.1L106,81.87H61a1.68,1.68,0,0,0-1.62,1.74v.19A1.68,1.68,0,0,0,61,85.53h49.41a8.47,8.47,0,0,1,6.15,4h0A5.69,5.69,0,0,1,117.32,92.37Z" transform="translate(-28.51 -38.14)"/><rect class="cls-6" x="31.38" y="50.13" width="40.09" height="11.96" rx="0.76" ry="0.76"/><ellipse class="cls-7" cx="42.14" cy="85.2" rx="6.61" ry="7.09"/><ellipse class="cls-8" cx="42.14" cy="85.2" rx="2.92" ry="3.13"/><path class="cls-8" d="M70.65,127.88a4.55,4.55,0,1,1,4.23-4.54A4.39,4.39,0,0,1,70.65,127.88Zm0-8.59a4.07,4.07,0,1,0,3.78,4.06A3.93,3.93,0,0,0,70.65,119.29Z" transform="translate(-28.51 -38.14)"/><ellipse class="cls-7" cx="99.12" cy="85.2" rx="6.61" ry="7.09"/><ellipse class="cls-8" cx="99.12" cy="85.2" rx="2.92" ry="3.13"/><path class="cls-8" d="M127.63,127.88a4.55,4.55,0,1,1,4.23-4.54A4.39,4.39,0,0,1,127.63,127.88Zm0-8.59a4.07,4.07,0,1,0,3.78,4.06A3.93,3.93,0,0,0,127.63,119.29Z" transform="translate(-28.51 -38.14)"/><path class="cls-2" d="M141.57,120.12a2.08,2.08,0,0,1-.48,1.52,1.79,1.79,0,0,1-1.37.65h-3.19a1.91,1.91,0,0,1-1.84-1.61l-.29-1.53a4,4,0,0,0-3.8-3.32h-6a4,4,0,0,0-3.8,3.32l-.29,1.53a1.91,1.91,0,0,1-1.84,1.61h-1.35V111.61h23.56Z" transform="translate(-28.51 -38.14)"/><path class="cls-2" d="M116.09,111.61v10.68H79.8A1.91,1.91,0,0,1,78,120.68l-.29-1.53a4,4,0,0,0-3.8-3.32h-6a4,4,0,0,0-3.8,3.32l-.29,1.53a1.91,1.91,0,0,1-1.84,1.61H53.71a1.8,1.8,0,0,1-1.36-.64,2.07,2.07,0,0,1-.49-1.5l.57-8.54Z" transform="translate(-28.51 -38.14)"/><rect class="cls-2" x="87.58" y="73.47" width="1.23" height="10.68"/><polygon class="cls-2" points="87.58 69.5 87.58 72.14 24.01 72.14 24.19 69.5 87.58 69.5"/><path class="cls-2" d="M140.77,110.28H117.32v-2.65h22.27A5.08,5.08,0,0,1,140.77,110.28Z" transform="translate(-28.51 -38.14)"/><rect class="cls-2" x="87.58" y="69.5" width="1.23" height="2.65"/><path class="cls-9" d="M107.54,96.14l7.61,8.17h-5.66a2,2,0,0,1-2-2.09Z" transform="translate(-28.51 -38.14)"/><path class="cls-9" d="M111.1,92.72l10.77,11.55a1.42,1.42,0,0,1-.3,0h-1.41L109.37,92.73h1.73Z" transform="translate(-28.51 -38.14)"/><path class="cls-9" d="M122.65,101.94a1.55,1.55,0,0,1,.15,1.55h0l-10-10.78h2.44a1.58,1.58,0,0,1,1.28.67Z" transform="translate(-28.51 -38.14)"/><path class="cls-9" d="M61.22,90l8.51,9.14H62.54a1.68,1.68,0,0,1-1.62-1.74V91A1.81,1.81,0,0,1,61.22,90Z" transform="translate(-28.51 -38.14)"/><polygon class="cls-9" points="38.76 51.15 47.97 61.02 46.23 61.02 37.03 51.15 38.76 51.15"/><polygon class="cls-9" points="61.94 61.02 49.61 61.02 40.41 51.15 52.74 51.15 61.94 61.02"/><polygon class="cls-9" points="59.48 51.15 68.69 61.02 66.95 61.02 57.74 51.15 59.48 51.15"/><path class="cls-9" d="M97.45,89.29A1.68,1.68,0,0,1,99.07,91v6.41a1.79,1.79,0,0,1-.6,1.35l-8.84-9.49Z" transform="translate(-28.51 -38.14)"/><path class="cls-10" d="M22.52,80.88H33.9a0,0,0,0,1,0,0v3.44a0,0,0,0,1,0,0H22.52a.22.22,0,0,1-.22-.22v-3a.22.22,0,0,1,.22-.22Z"/><path class="cls-11" d="M143.63,120.51a1.89,1.89,0,0,1-1.82,2H137l-1.73-5.16h6.57a1.89,1.89,0,0,1,1.82,2Z" transform="translate(-28.51 -38.14)"/><rect class="cls-6" x="50.79" y="50.39" width="1.4" height="11.65"/><rect class="cls-12" x="35.06" y="62.56" width="1.39" height="5.63"/><polygon class="cls-12" points="38.3 66.38 37.5 67.6 33.21 64.37 34 63.15 38.3 66.38"/><polygon class="cls-12" points="33.21 66.38 34 67.6 38.3 64.37 37.5 63.15 33.21 66.38"/><text class="cls-13" transform="translate(43.99 67.14) scale(0.93 1)">A<tspan class="cls-14" x="2.8" y="0">MBULANCE</tspan></text><path class="cls-15" d="M110.39,85.53H61a1.68,1.68,0,0,1-1.62-1.74V83.6A1.68,1.68,0,0,1,61,81.87h45l3.71,3.62A6.46,6.46,0,0,1,110.39,85.53Z" transform="translate(-28.51 -38.14)"/><rect class="cls-16" x="66.57" y="40.94" width="5.07" height="1.11"/><path class="cls-3" d="M100,79.08H95.23l.42-2.55a1.2,1.2,0,0,1,1.16-1H98.4a1.2,1.2,0,0,1,1.16,1Z" transform="translate(-28.51 -38.14)"/><path class="cls-17" d="M74.74,99.17h-5L61.22,90a1.59,1.59,0,0,1,1.32-.74h3Z" transform="translate(-28.51 -38.14)"/><polygon class="cls-17" points="49.61 61.02 47.97 61.02 38.76 51.15 40.41 51.15 49.61 61.02"/><path class="cls-17" d="M120.16,104.31h-5l-7.61-8.17V94.82a2,2,0,0,1,1.83-2.09Z" transform="translate(-28.51 -38.14)"/><path class="cls-17" d="M122.79,103.5a1.38,1.38,0,0,1-.92.78L111.1,92.72h1.65Z" transform="translate(-28.51 -38.14)"/><polygon class="cls-17" points="66.95 61.02 61.94 61.02 52.74 51.15 57.74 51.15 66.95 61.02"/><path class="cls-17" d="M98.48,98.78a1.54,1.54,0,0,1-1,.39h-.26L88,89.29h1.65Z" transform="translate(-28.51 -38.14)"/><rect class="cls-18" x="109.95" y="70.82" width="1.81" height="5.47"/><path class="cls-11" d="M138.45,114.43a1.62,1.62,0,0,1-1.56-1.68v-2.12a1.62,1.62,0,0,1,1.56-1.68Z" transform="translate(-28.51 -38.14)"/><g class="cls-19"><path class="cls-11" d="M105,119.88h-.49v-27a4,4,0,0,1,3.84-4.12h6.51l12,16.15v10.89h-.49V105.13L114.62,89.33h-6.27A3.48,3.48,0,0,0,105,92.92Z" transform="translate(-28.51 -38.14)"/></g><rect class="cls-10" x="50.92" y="80.88" width="40.2" height="3.44"/><rect class="cls-3" x="28.1" y="48.27" width="4.61" height="2.25" rx="0.14" ry="0.14"/><path class="cls-7" d="M122.15,99.57a1.62,1.62,0,0,1,1.56,1.68v2.12a1.62,1.62,0,0,1-1.56,1.68Z" transform="translate(-28.51 -38.14)"/><path class="cls-9" d="M80.85,151.05h-.1c0-1.25.62-2.11,2-3.51a23.26,23.26,0,0,0,3.1-3.5,2.37,2.37,0,0,0,.34-1.14,1.26,1.26,0,0,0-.13-.56,2,2,0,0,0-1-.1A1.4,1.4,0,0,0,84,143.48a1,1,0,0,0,.16.51l-.19.4a1.86,1.86,0,0,1-1.73-.46l-.37-.37a1.94,1.94,0,0,1-.86-1.7,2.57,2.57,0,0,1,.34-1.25A4,4,0,0,1,84.88,139a5.37,5.37,0,0,1,2.24.51,4.2,4.2,0,0,1,1.14,1.06l.19.19a3.82,3.82,0,0,1,1.15,2.54c0,2-1.41,3.65-2.87,5.19h2.37v.1l.59.59v2.5H81.44Zm3.59-9.72c1.3-.26,2.82.83,1.73,2.85A23.46,23.46,0,0,1,83,147.77c-1.33,1.33-1.92,2.08-1.92,3h7.71v-2h-4c1.73-1.82,3.87-3.78,3.87-6.15A3.38,3.38,0,0,0,87,139.77c-1.42-.78-4.29-.7-5.3,1-.77,1.3,0,3,1.65,2.69C82.72,142.51,83.68,141.48,84.43,141.34Z" transform="translate(-28.51 -38.14)"/><path class="cls-9" d="M97.7,140.44l.27.27c1.15,1.15,1.46,3.12,1.46,5.07,0,3-.72,6.12-4.16,6.12a3.69,3.69,0,0,1-2.75-1l-.26-.24c-1.49-1.06-1.87-3.19-1.87-5.39a8.33,8.33,0,0,1,1-4.62,4,4,0,0,1,6.31-.19Zm-6.05.38a8.07,8.07,0,0,0-.94,4.43c0,2.91.72,5.73,3.92,5.73s3.89-2.93,3.89-5.84-.7-5.83-3.94-5.83A3.37,3.37,0,0,0,91.65,140.83Zm4.75,4.34c0,1.65-.24,3.84-1.76,3.84s-1.81-2-1.81-3.7c0-1.52.06-4,1.81-4C96.18,141.32,96.4,143.47,96.4,145.16Zm-2.26,3.41a1,1,0,0,0,.5.11c1.23,0,1.44-2,1.44-3.52a6.67,6.67,0,0,0-.46-2.87,1.24,1.24,0,0,0-.34-.06c-1.49,0-1.54,2.29-1.54,3.71A6.47,6.47,0,0,0,94.14,148.57Z" transform="translate(-28.51 -38.14)"/><path class="cls-9" d="M104.83,139.21v.1l.59.59v11.75h-2.66l-.59-.59h-.1v-8.61H100.7l-.59-.59H100c-.24-1.55.66-2.64,2.53-2.64Zm-4.53,2.32h2.1v9.2h2.11v-11.2h-2C100.93,139.53,100.13,140.36,100.3,141.53Z" transform="translate(-28.51 -38.14)"/><path class="cls-9" d="M107.49,145.53a2.86,2.86,0,0,1-.8-.83,3.56,3.56,0,0,1-.56-1.94,3.83,3.83,0,0,1,3.75-3.81,4,4,0,0,1,3.19,1.67l.16.16a3.57,3.57,0,0,1,1.07,2.53,3.62,3.62,0,0,1-.18,1.12c-.22.77-2,4.13-3,6l-.58,1.12-.27.14a1.83,1.83,0,0,1-1.14-.51l-.37-.37a1.55,1.55,0,0,1-.77-1.38,2,2,0,0,1,.21-.83l1.06-2.13a2.15,2.15,0,0,1-1.52-.69Zm2.21,5.27c.56-1.1,3.28-6.24,3.52-7.09a3.45,3.45,0,0,0-5.73-3.43,3.4,3.4,0,0,0-.53,4.24c1.34,2,3.79.75,3.46-.54a1.35,1.35,0,0,1-1.87-1.25,1.4,1.4,0,0,1,1.67-1.47,1.55,1.55,0,0,1,.9,2.3l-2.58,5.19A1.37,1.37,0,0,0,109.7,150.8Zm.93-7.24a.46.46,0,0,0,0,.14l0,0,.14-.29a2,2,0,0,0,.18-.77,1.48,1.48,0,0,0-.08-.45.58.58,0,0,1-.14-.06,1.13,1.13,0,0,0-1.31,1.22,1.78,1.78,0,0,0,0,.3,1.2,1.2,0,0,0,.42.08A2.11,2.11,0,0,0,110.62,143.56Z" transform="translate(-28.51 -38.14)"/></g></g></svg>