<svg xmlns="http://www.w3.org/2000/svg" viewBox="0 0 93.41 50.16"><defs><style>.cls-1{isolation:isolate;}.cls-13,.cls-2{fill:#fd2202;}.cls-3{fill:#2f2f2f;}.cls-4{fill:#eefcff;}.cls-5{fill:#aaa;}.cls-6{fill:#131313;}.cls-7{fill:#999;}.cls-20,.cls-8{fill:#d32527;}.cls-9{fill:#00b2ff;}.cls-10{fill:#c6c6c6;}.cls-11{fill:#919191;}.cls-12{fill:#2280c8;}.cls-13{font-size:2.97px;font-family:Bungee-Regular, Bungee Regular;}.cls-14{letter-spacing:0em;}.cls-15{fill:#d7d7d7;}.cls-16{fill:#848484;}.cls-17{fill:#71daff;}.cls-18{fill:#ffa64d;}.cls-19{opacity:0.5;mix-blend-mode:multiply;}.cls-20{font-size:15.23px;font-family:NeuropolXRg-Regular, Neuropol X;}.cls-21{letter-spacing:-0.02em;}</style></defs><title>Untitled-1</title><g class="cls-1"><g id="Layer_1" data-name="Layer 1"><path class="cls-2" d="M72.74,95h-.55a.82.82,0,0,1-.63-.3,1,1,0,0,1-.22-.7l.15-1.71a.87.87,0,0,1,.84-.82h.4Z" transform="translate(-53.59 -69.85)"/><rect class="cls-3" x="22.44" y="25.15" width="51.08" height="4.1"/><path class="cls-4" d="M113.36,90.61V78.52l.29.39h0l6.88,9.27L127,89.66a2.92,2.92,0,0,1,1.55.95Z" transform="translate(-53.59 -69.85)"/><path class="cls-4" d="M129.37,93.17h-16v-.85H129.3c0,.06,0,.12,0,.18Z" transform="translate(-53.59 -69.85)"/><polygon class="cls-4" points="60.57 22.47 60.57 23.33 18.65 23.33 18.71 22.47 60.57 22.47"/><path class="cls-4" d="M114.16,80.75v9.86H72.41L73.1,77a4.28,4.28,0,0,1,4.13-4.13h28.48L106.82,74H77.76a1.09,1.09,0,0,0-1,1.12v.12a1.08,1.08,0,0,0,1,1.12h31.92a5.47,5.47,0,0,1,4,2.59h0A3.68,3.68,0,0,1,114.16,80.75Z" transform="translate(-53.59 -69.85)"/><rect class="cls-5" x="23.47" y="8.25" width="25.89" height="7.72" rx="0.76" ry="0.76"/><ellipse class="cls-6" cx="30.42" cy="30.91" rx="4.27" ry="4.58"/><ellipse class="cls-7" cx="30.42" cy="30.91" rx="1.88" ry="2.02"/><path class="cls-7" d="M84,103.68a2.94,2.94,0,1,1,2.73-2.93A2.84,2.84,0,0,1,84,103.68Zm0-5.55a2.63,2.63,0,1,0,2.44,2.62A2.54,2.54,0,0,0,84,98.13Z" transform="translate(-53.59 -69.85)"/><ellipse class="cls-6" cx="67.22" cy="30.91" rx="4.27" ry="4.58"/><ellipse class="cls-7" cx="67.22" cy="30.91" rx="1.88" ry="2.02"/><path class="cls-7" d="M120.81,103.68a2.94,2.94,0,1,1,2.73-2.93A2.84,2.84,0,0,1,120.81,103.68Zm0-5.55a2.63,2.63,0,1,0,2.44,2.62A2.54,2.54,0,0,0,120.81,98.13Z" transform="translate(-53.59 -69.85)"/><path class="cls-8" d="M129.82,98.67a1.34,1.34,0,0,1-.31,1,1.16,1.16,0,0,1-.88.42h-2.06a1.24,1.24,0,0,1-1.19-1l-.19-1a2.55,2.55,0,0,0-2.45-2.15h-3.88A2.56,2.56,0,0,0,116.4,98l-.19,1a1.23,1.23,0,0,1-1.19,1h-.87v-6.9h15.22Z" transform="translate(-53.59 -69.85)"/><path class="cls-8" d="M113.36,93.17v6.9H89.92a1.24,1.24,0,0,1-1.19-1l-.19-1a2.55,2.55,0,0,0-2.45-2.15H82.21A2.56,2.56,0,0,0,79.76,98l-.19,1a1.23,1.23,0,0,1-1.19,1H73.07a1.16,1.16,0,0,1-.88-.41,1.34,1.34,0,0,1-.32-1l.37-5.52Z" transform="translate(-53.59 -69.85)"/><rect class="cls-8" x="59.77" y="23.33" width="0.8" height="6.9"/><polygon class="cls-8" points="59.77 20.76 59.77 22.47 18.71 22.47 18.82 20.76 59.77 20.76"/><path class="cls-8" d="M129.3,92.32H114.16V90.61h14.38A3.28,3.28,0,0,1,129.3,92.32Z" transform="translate(-53.59 -69.85)"/><rect class="cls-8" x="59.77" y="20.76" width="0.8" height="1.71"/><path class="cls-9" d="M107.84,83.18l4.92,5.28H109.1a1.31,1.31,0,0,1-1.26-1.35Z" transform="translate(-53.59 -69.85)"/><path class="cls-9" d="M110.13,81l7,7.46-.19,0H116L109,81h1.12Z" transform="translate(-53.59 -69.85)"/><path class="cls-9" d="M117.59,86.93a1,1,0,0,1,.1,1h0l-6.48-7h1.57a1,1,0,0,1,.83.43Z" transform="translate(-53.59 -69.85)"/><path class="cls-9" d="M77.92,79.23l5.5,5.9H78.77a1.09,1.09,0,0,1-1-1.12V79.88A1.17,1.17,0,0,1,77.92,79.23Z" transform="translate(-53.59 -69.85)"/><polygon class="cls-9" points="28.24 8.91 34.18 15.29 33.06 15.29 27.11 8.91 28.24 8.91"/><polygon class="cls-9" points="43.21 15.29 35.24 15.29 29.3 8.91 37.26 8.91 43.21 15.29"/><polygon class="cls-9" points="41.62 8.91 47.56 15.29 46.44 15.29 40.5 8.91 41.62 8.91"/><path class="cls-9" d="M101.32,78.76a1.09,1.09,0,0,1,1,1.12V84a1.15,1.15,0,0,1-.39.87l-5.71-6.13Z" transform="translate(-53.59 -69.85)"/><path class="cls-10" d="M17.82,28.12h7.27a0,0,0,0,1,0,0v2.22a0,0,0,0,1,0,0H17.82a.22.22,0,0,1-.22-.22V28.33A.22.22,0,0,1,17.82,28.12Z"/><path class="cls-11" d="M131.15,98.92a1.22,1.22,0,0,1-1.17,1.26h-3.13l-1.12-3.33H130a1.22,1.22,0,0,1,1.17,1.26Z" transform="translate(-53.59 -69.85)"/><rect class="cls-5" x="36.01" y="8.42" width="0.9" height="7.52"/><rect class="cls-12" x="25.85" y="16.28" width="0.9" height="3.63"/><polygon class="cls-12" points="27.94 18.75 27.42 19.54 24.65 17.45 25.16 16.66 27.94 18.75"/><polygon class="cls-12" points="24.65 18.75 25.16 19.54 27.94 17.45 27.42 16.66 24.65 18.75"/><text class="cls-13" transform="translate(31.62 19.24) scale(0.93 1)"><tspan class="cls-14">A</tspan><tspan x="1.81" y="0">MBULANCE</tspan></text><path class="cls-15" d="M109.68,76.33H77.76a1.08,1.08,0,0,1-1-1.12v-.12a1.09,1.09,0,0,1,1-1.12h29.06l2.4,2.34Z" transform="translate(-53.59 -69.85)"/><rect class="cls-16" x="46.19" y="2.32" width="3.27" height="0.72"/><path class="cls-2" d="M103,72.16H99.89l.27-1.65a.77.77,0,0,1,.75-.67h1a.77.77,0,0,1,.75.67Z" transform="translate(-53.59 -69.85)"/><path class="cls-17" d="M86.65,85.14H83.42l-5.5-5.9a1,1,0,0,1,.86-.48H80.7Z" transform="translate(-53.59 -69.85)"/><polygon class="cls-17" points="35.24 15.29 34.18 15.29 28.24 8.91 29.3 8.91 35.24 15.29"/><path class="cls-17" d="M116,88.46h-3.23l-4.92-5.28v-.85A1.32,1.32,0,0,1,109,81Z" transform="translate(-53.59 -69.85)"/><path class="cls-17" d="M117.68,87.94a.89.89,0,0,1-.59.5l-7-7.46h1.06Z" transform="translate(-53.59 -69.85)"/><polygon class="cls-17" points="46.44 15.29 43.21 15.29 37.26 8.91 40.5 8.91 46.44 15.29"/><path class="cls-17" d="M102,84.89a1,1,0,0,1-.66.25h-.17l-5.95-6.38h1.06Z" transform="translate(-53.59 -69.85)"/><rect class="cls-18" x="74.21" y="21.62" width="1.17" height="3.53"/><path class="cls-11" d="M127.8,95a1,1,0,0,1-1-1.08V92.55a1,1,0,0,1,1-1.08Z" transform="translate(-53.59 -69.85)"/><g class="cls-19"><path class="cls-11" d="M106.19,98.52h-.32V81.1a2.58,2.58,0,0,1,2.48-2.66h4.21l7.73,10.43v7H120V89l-7.56-10.21h-4.05a2.25,2.25,0,0,0-2.16,2.32Z" transform="translate(-53.59 -69.85)"/></g><rect class="cls-10" x="36.09" y="28.12" width="25.97" height="2.22"/><rect class="cls-2" x="21.35" y="7.06" width="2.98" height="1.45" rx="0.14" ry="0.14"/><path class="cls-6" d="M117.27,85.4a1,1,0,0,1,1,1.08v1.37a1,1,0,0,1-1,1.08Z" transform="translate(-53.59 -69.85)"/><path class="cls-8" d="M55.43,110.92H58v1.68H55.43V116h3.19v1.68h-5V106h5v1.68H55.43Z" transform="translate(-53.59 -69.85)"/><path class="cls-8" d="M63.67,114.31,64.93,106h2.57v11.74H65.75v-8.42l-1.27,8.42H62.73l-1.38-8.3v8.3H59.75V106h2.57Z" transform="translate(-53.59 -69.85)"/><path class="cls-8" d="M70.68,110.92h2.53v1.68H70.68V116h3.19v1.68h-5V106h5v1.68H70.68Z" transform="translate(-53.59 -69.85)"/><path class="cls-8" d="M78.87,117.71a3.61,3.61,0,0,1-.17-1.44v-1.84c0-1.09-.37-1.49-1.21-1.49h-.64v4.78H75V106h2.78c1.91,0,2.73.89,2.73,2.7v.92A2.34,2.34,0,0,1,79.32,112c.92.39,1.22,1.27,1.22,2.5v1.81a3.46,3.46,0,0,0,.2,1.43Zm-2-10.06v3.61h.72c.69,0,1.11-.3,1.11-1.24v-1.16c0-.84-.29-1.21-.94-1.21Z" transform="translate(-53.59 -69.85)"/><path class="cls-8" d="M84.52,111.17H87.1v3.72c0,1.88-.94,3-2.75,3s-2.75-1.07-2.75-3v-6.11c0-1.88.94-3,2.75-3s2.75,1.07,2.75,3v1.14H85.36v-1.26c0-.84-.37-1.16-1-1.16s-1,.32-1,1.16V115c0,.84.37,1.14,1,1.14s1-.3,1-1.14v-2.16h-.84Z" transform="translate(-53.59 -69.85)"/><path class="cls-8" d="M90.14,110.92h2.53v1.68H90.14V116h3.19v1.68h-5V106h5v1.68H90.14Z" transform="translate(-53.59 -69.85)"/><path class="cls-8" d="M96.11,109.21v8.5H94.45V106h2.31l1.9,7v-7h1.64v11.74h-1.9Z" transform="translate(-53.59 -69.85)"/><path class="cls-8" d="M107,113.34v1.56c0,1.88-.94,3-2.75,3s-2.75-1.07-2.75-3v-6.11c0-1.88.94-3,2.75-3s2.75,1.07,2.75,3v1.14h-1.74v-1.26c0-.84-.37-1.16-1-1.16s-1,.32-1,1.16V115c0,.84.37,1.14,1,1.14s1-.3,1-1.14v-1.68Z" transform="translate(-53.59 -69.85)"/><path class="cls-8" d="M109.65,113.82,107.31,106h1.93l1.41,5.35,1.41-5.35h1.76l-2.33,7.85v3.89h-1.85Z" transform="translate(-53.59 -69.85)"/><text class="cls-20" transform="translate(61.6 46.84)"><tspan class="cls-21">C</tspan><tspan x="11.99" y="0">all</tspan></text></g></g></svg>