<svg xmlns="http://www.w3.org/2000/svg" viewBox="0 0 126.83 75.82"><defs><style>.cls-1{isolation:isolate;}.cls-13,.cls-2{fill:#fd2202;}.cls-3{fill:#2f2f2f;}.cls-4{fill:#eefcff;}.cls-5{fill:#aaa;}.cls-6{fill:#131313;}.cls-7{fill:#999;}.cls-8{fill:#d32527;}.cls-9{fill:#00b2ff;}.cls-10{fill:#c6c6c6;}.cls-11{fill:#919191;}.cls-12{fill:#2280c8;}.cls-13{font-size:4.95px;font-family:Bungee-Regular, Bungee Regular;}.cls-14{letter-spacing:0em;}.cls-15{fill:#d7d7d7;}.cls-16{fill:#848484;}.cls-17{fill:#71daff;}.cls-18{fill:#ffa64d;}.cls-19{opacity:0.5;mix-blend-mode:multiply;}</style></defs><title>logo2</title><g class="cls-1"><g id="Layer_1" data-name="Layer 1"><path class="cls-2" d="M57.37,103.23h-.92a1.37,1.37,0,0,1-1-.5,1.59,1.59,0,0,1-.36-1.17l.26-2.85a1.46,1.46,0,0,1,1.41-1.37h.66Z" transform="translate(-41.75 -61.33)"/><rect class="cls-3" x="21.11" y="41.9" width="85.1" height="6.84"/><path class="cls-4" d="M125,95.92V75.79l.48.65h0L137,91.88l10.75,2.46a4.86,4.86,0,0,1,2.59,1.58Z" transform="translate(-41.75 -61.33)"/><path class="cls-4" d="M151.72,100.19H125V98.77H151.6c0,.1,0,.2,0,.3Z" transform="translate(-41.75 -61.33)"/><polygon class="cls-4" points="84.63 37.44 84.63 38.86 14.8 38.86 14.9 37.44 84.63 37.44"/><path class="cls-4" d="M126.37,79.49V95.92H56.84L58,73.26a7.12,7.12,0,0,1,6.88-6.87h47.45l1.85,1.8H65.75A1.81,1.81,0,0,0,64,70.06v.2a1.81,1.81,0,0,0,1.74,1.87h53.17a9.11,9.11,0,0,1,6.61,4.31h0A6.13,6.13,0,0,1,126.37,79.49Z" transform="translate(-41.75 -61.33)"/><rect class="cls-5" x="22.83" y="13.75" width="43.14" height="12.86" rx="0.76" ry="0.76"/><ellipse class="cls-6" cx="34.41" cy="51.49" rx="7.11" ry="7.63"/><ellipse class="cls-7" cx="34.41" cy="51.49" rx="3.14" ry="3.37"/><path class="cls-7" d="M76.15,117.7a4.89,4.89,0,1,1,4.55-4.88A4.73,4.73,0,0,1,76.15,117.7Zm0-9.25a4.38,4.38,0,1,0,4.07,4.37A4.23,4.23,0,0,0,76.15,108.45Z" transform="translate(-41.75 -61.33)"/><ellipse class="cls-6" cx="95.71" cy="51.49" rx="7.11" ry="7.63"/><ellipse class="cls-7" cx="95.71" cy="51.49" rx="3.14" ry="3.37"/><path class="cls-7" d="M137.46,117.7a4.89,4.89,0,1,1,4.55-4.88A4.73,4.73,0,0,1,137.46,117.7Zm0-9.25a4.38,4.38,0,1,0,4.07,4.37A4.23,4.23,0,0,0,137.46,108.45Z" transform="translate(-41.75 -61.33)"/><path class="cls-8" d="M152.46,109.35a2.24,2.24,0,0,1-.52,1.63,1.93,1.93,0,0,1-1.47.69H147a2.06,2.06,0,0,1-2-1.73l-.31-1.65a4.26,4.26,0,0,0-4.09-3.58H134.2a4.26,4.26,0,0,0-4.09,3.58L129.8,110a2.06,2.06,0,0,1-2,1.73h-1.45V100.19h25.35Z" transform="translate(-41.75 -61.33)"/><path class="cls-8" d="M125,100.19v11.49H86A2.06,2.06,0,0,1,84,110l-.31-1.65a4.26,4.26,0,0,0-4.09-3.58H73.16a4.26,4.26,0,0,0-4.09,3.58L68.76,110a2.06,2.06,0,0,1-2,1.73H57.93a1.94,1.94,0,0,1-1.46-.68,2.23,2.23,0,0,1-.53-1.61l.62-9.19Z" transform="translate(-41.75 -61.33)"/><rect class="cls-8" x="83.3" y="38.86" width="1.33" height="11.49"/><polygon class="cls-8" points="83.3 34.59 83.3 37.44 14.9 37.44 15.09 34.59 83.3 34.59"/><path class="cls-8" d="M151.6,98.77H126.37V95.92h24A5.47,5.47,0,0,1,151.6,98.77Z" transform="translate(-41.75 -61.33)"/><rect class="cls-8" x="83.3" y="34.59" width="1.33" height="2.85"/><path class="cls-9" d="M115.84,83.55,124,92.34h-6.09a2.18,2.18,0,0,1-2.1-2.25Z" transform="translate(-41.75 -61.33)"/><path class="cls-9" d="M119.67,79.87,131.26,92.3a1.53,1.53,0,0,1-.32,0h-1.51L117.81,79.88h1.86Z" transform="translate(-41.75 -61.33)"/><path class="cls-9" d="M132.1,89.79a1.67,1.67,0,0,1,.16,1.66h0l-10.8-11.6h2.62a1.7,1.7,0,0,1,1.37.72Z" transform="translate(-41.75 -61.33)"/><path class="cls-9" d="M66,77l9.16,9.83H67.43a1.81,1.81,0,0,1-1.74-1.87V78A1.94,1.94,0,0,1,66,77Z" transform="translate(-41.75 -61.33)"/><polygon class="cls-9" points="30.77 14.84 40.67 25.47 38.8 25.47 28.9 14.84 30.77 14.84"/><polygon class="cls-9" points="55.71 25.47 42.44 25.47 32.54 14.84 45.81 14.84 55.71 25.47"/><polygon class="cls-9" points="53.06 14.84 62.97 25.47 61.1 25.47 51.19 14.84 53.06 14.84"/><path class="cls-9" d="M105,76.18A1.81,1.81,0,0,1,106.73,78v6.89a1.92,1.92,0,0,1-.64,1.45L96.58,76.18Z" transform="translate(-41.75 -61.33)"/><path class="cls-10" d="M13.28,46.84H25.53a0,0,0,0,1,0,0v3.7a0,0,0,0,1,0,0H13.28a.22.22,0,0,1-.22-.22V47.06A.22.22,0,0,1,13.28,46.84Z"/><path class="cls-11" d="M154.68,109.77a2,2,0,0,1-2,2.1h-5.21l-1.86-5.55h7.07a2,2,0,0,1,2,2.1Z" transform="translate(-41.75 -61.33)"/><rect class="cls-5" x="43.71" y="14.03" width="1.5" height="12.53"/><rect class="cls-12" x="26.79" y="27.13" width="1.49" height="6.05"/><polygon class="cls-12" points="30.27 31.23 29.41 32.55 24.79 29.07 25.65 27.76 30.27 31.23"/><polygon class="cls-12" points="24.79 31.23 25.65 32.55 30.27 29.07 29.41 27.76 24.79 31.23"/><text class="cls-13" transform="translate(36.4 32.05) scale(0.93 1)"><tspan class="cls-14">A</tspan><tspan x="3.01" y="0">MBULANCE</tspan></text><path class="cls-15" d="M118.91,72.13H65.75A1.81,1.81,0,0,1,64,70.26v-.2a1.81,1.81,0,0,1,1.74-1.87h48.41l4,3.89A7,7,0,0,1,118.91,72.13Z" transform="translate(-41.75 -61.33)"/><rect class="cls-16" x="60.68" y="3.86" width="5.45" height="1.2"/><path class="cls-2" d="M107.71,65.2H102.6l.46-2.75a1.29,1.29,0,0,1,1.24-1.12H106a1.29,1.29,0,0,1,1.24,1.12Z" transform="translate(-41.75 -61.33)"/><path class="cls-17" d="M80.55,86.81H75.16L66,77a1.71,1.71,0,0,1,1.43-.8h3.22Z" transform="translate(-41.75 -61.33)"/><polygon class="cls-17" points="42.44 25.47 40.67 25.47 30.77 14.84 32.54 14.84 42.44 25.47"/><path class="cls-17" d="M129.42,92.34H124l-8.19-8.79V82.13a2.2,2.2,0,0,1,2-2.25Z" transform="translate(-41.75 -61.33)"/><path class="cls-17" d="M132.25,91.47a1.49,1.49,0,0,1-1,.83L119.67,79.87h1.77Z" transform="translate(-41.75 -61.33)"/><polygon class="cls-17" points="61.1 25.47 55.71 25.47 45.81 14.84 51.19 14.84 61.1 25.47"/><path class="cls-17" d="M106.09,86.39a1.66,1.66,0,0,1-1.1.42h-.28l-9.9-10.63h1.77Z" transform="translate(-41.75 -61.33)"/><rect class="cls-18" x="107.36" y="36.01" width="1.95" height="5.89"/><path class="cls-11" d="M149.11,103.23a1.75,1.75,0,0,1-1.68-1.8V99.15a1.75,1.75,0,0,1,1.68-1.8Z" transform="translate(-41.75 -61.33)"/><g class="cls-19"><path class="cls-11" d="M113.1,109.09h-.53v-29a4.3,4.3,0,0,1,4.13-4.44h7L136.59,93v11.72h-.53V93.23l-12.6-17h-6.75a3.75,3.75,0,0,0-3.6,3.87Z" transform="translate(-41.75 -61.33)"/></g><rect class="cls-10" x="43.85" y="46.84" width="43.26" height="3.7"/><rect class="cls-2" x="19.3" y="11.75" width="4.96" height="2.42" rx="0.14" ry="0.14"/><path class="cls-6" d="M131.57,87.24a1.75,1.75,0,0,1,1.68,1.8v2.28a1.75,1.75,0,0,1-1.68,1.8Z" transform="translate(-41.75 -61.33)"/><path class="cls-8" d="M46.3,137H45l-1-7.72L43,137H41.75l1.7-11.21h.62c.48,0,.56.3.61.61Z" transform="translate(-41.75 -61.33)"/><path class="cls-8" d="M55.94,137H54.8v-5.78l-.87,3.85h-.35c-.67,0-.8-.67-.87-.91L52,131.25V137H50.91V125.82h.71a.5.5,0,0,1,.51.42l1.33,6.44,1.27-6.46a.51.51,0,0,1,.51-.4h.7Z" transform="translate(-41.75 -61.33)"/><path class="cls-8" d="M64.94,132.34v3.28A1.43,1.43,0,0,1,63.51,137H61.43V125.82h2.08a1.42,1.42,0,0,1,1.43,1.41v3.29a1,1,0,0,1-.66.91A1,1,0,0,1,64.94,132.34Zm-1.15-4.79a.54.54,0,0,0-.59-.58h-.62v3.92h.63c.3,0,.59-.14.59-.66Zm0,5c0-.5-.29-.64-.59-.64h-.62v3.94h.63a.55.55,0,0,0,.59-.59Z" transform="translate(-41.75 -61.33)"/><path class="cls-8" d="M74.64,135.73a1.37,1.37,0,0,1-1.38,1.36v0h-.88A1.39,1.39,0,0,1,71,135.73v-9.58a.35.35,0,0,1,.34-.32h.82v9.69a.6.6,0,0,0,.59.61h.18a.61.61,0,0,0,.61-.61v-9.69h1.15Z" transform="translate(-41.75 -61.33)"/><path class="cls-8" d="M84.73,135.9c-.13.29-.32.74-.37.83a.65.65,0,0,1-.62.3H81V125.82h.8a.37.37,0,0,1,.35.35v9.72Z" transform="translate(-41.75 -61.33)"/><path class="cls-8" d="M93.17,137H91.9l-1-7.72-1,7.72H88.62l1.7-11.21h.63c.48,0,.56.3.61.61Z" transform="translate(-41.75 -61.33)"/><path class="cls-8" d="M102,137h-.53a.75.75,0,0,1-.77-.72l-1.23-5.54V137H98.34V125.82h.53c.64,0,.75.3.82.62l1.19,5.83v-6.46H102Z" transform="translate(-41.75 -61.33)"/><path class="cls-8" d="M111.58,135.73a1.43,1.43,0,0,1-1.38,1.43h-.71a1.43,1.43,0,0,1-1.44-1.43v-8.59a1.43,1.43,0,0,1,1.44-1.43h.71a1.42,1.42,0,0,1,1.38,1.43v1.71a.61.61,0,0,1-.3.61l-.83.38v-2.52a.62.62,0,0,0-1.23,0v8.19a.62.62,0,1,0,1.23,0V134a.65.65,0,0,1,.3-.62l.83-.37Z" transform="translate(-41.75 -61.33)"/><path class="cls-8" d="M121.66,135.9c-.13.29-.32.74-.37.83a.65.65,0,0,1-.62.3H118.1V126.14a.35.35,0,0,1,.35-.32h3l-.38.83a.61.61,0,0,1-.61.32h-.93a.26.26,0,0,0-.27.27v3.33H121c-.13.29-.32.75-.37.85a.63.63,0,0,1-.61.3h-.48a.28.28,0,0,0-.27.27v3.89Z" transform="translate(-41.75 -61.33)"/><path class="cls-8" d="M140.41,135.73a1.43,1.43,0,0,1-1.38,1.43h-.7a1.43,1.43,0,0,1-1.44-1.43v-8.59a1.43,1.43,0,0,1,1.44-1.43h.7a1.42,1.42,0,0,1,1.38,1.43v1.71a.61.61,0,0,1-.3.61l-.83.38v-2.52a.62.62,0,0,0-1.23,0v8.19a.62.62,0,1,0,1.23,0V134a.65.65,0,0,1,.3-.62l.83-.37Z" transform="translate(-41.75 -61.33)"/><path class="cls-8" d="M150.18,137h-1.27l-1-7.72-1,7.72h-1.27l1.7-11.21H148c.48,0,.56.3.61.61Z" transform="translate(-41.75 -61.33)"/><path class="cls-8" d="M158.94,132.34v3.28a1.43,1.43,0,0,1-1.43,1.41h-2.08V125.82h2.08a1.42,1.42,0,0,1,1.43,1.41v3.29a1,1,0,0,1-.66.91A1,1,0,0,1,158.94,132.34Zm-1.15-4.79a.54.54,0,0,0-.59-.58h-.62v3.92h.63c.3,0,.59-.14.59-.66Zm0,5c0-.5-.29-.64-.59-.64h-.62v3.94h.63a.55.55,0,0,0,.59-.59Z" transform="translate(-41.75 -61.33)"/><path class="cls-8" d="M167.41,128.64v-1.3a.61.61,0,1,0-1.22,0v1.07a3.77,3.77,0,0,0,.5,1.51l1.38,2.59a3.6,3.6,0,0,1,.51,1.78v1.43a1.43,1.43,0,0,1-1.44,1.43h-.72a1.46,1.46,0,0,1-1.39-1.43v-1.15a.66.66,0,0,1,.32-.62l.85-.37v2a.61.61,0,1,0,1.22,0v-1.28a3.88,3.88,0,0,0-.5-1.52l-1.38-2.58a3.6,3.6,0,0,1-.51-1.78V127.2a1.49,1.49,0,0,1,1.44-1.49h.72a1.49,1.49,0,0,1,1.39,1.49v.43a.66.66,0,0,1-.32.62C168.16,128.31,167.71,128.52,167.41,128.64Z" transform="translate(-41.75 -61.33)"/></g></g></svg>