<svg xmlns="http://www.w3.org/2000/svg" viewBox="0 0 161.3 96.42"><defs><style>.cls-1{isolation:isolate;}.cls-13,.cls-2{fill:#fd2202;}.cls-3{fill:#2f2f2f;}.cls-4{fill:#eefcff;}.cls-5{fill:#aaa;}.cls-6{fill:#131313;}.cls-7{fill:#999;}.cls-8{fill:#d32527;}.cls-9{fill:#00b2ff;}.cls-10{fill:#c6c6c6;}.cls-11{fill:#919191;}.cls-12{fill:#2280c8;}.cls-13{font-size:6.3px;font-family:Bungee-Regular, Bungee Regular;letter-spacing:0em;}.cls-14{letter-spacing:0em;}.cls-15{fill:#d7d7d7;}.cls-16{fill:#848484;}.cls-17{fill:#71daff;}.cls-18{fill:#ffa64d;}.cls-19{opacity:0.5;mix-blend-mode:multiply;}.cls-20{fill:#0085a1;}</style></defs><title>logo5</title><g class="cls-1"><g id="Layer_1" data-name="Layer 1"><path class="cls-2" d="M36.73,103H35.56a1.74,1.74,0,0,1-1.33-.63,2,2,0,0,1-.46-1.48l.33-3.63a1.85,1.85,0,0,1,1.79-1.74h.84Z" transform="translate(-16.86 -49.77)"/><rect class="cls-3" x="26.85" y="53.28" width="108.22" height="8.69"/><path class="cls-4" d="M122.79,93.75V68.15l.61.83h0L138,88.62l13.68,3.13a6.19,6.19,0,0,1,3.29,2Z" transform="translate(-16.86 -49.77)"/><path class="cls-4" d="M156.72,99.19H122.79V97.37h33.77c0,.13,0,.25,0,.38Z" transform="translate(-16.86 -49.77)"/><polygon class="cls-4" points="107.62 47.61 107.62 49.42 18.82 49.42 18.95 47.61 107.62 47.61"/><path class="cls-4" d="M124.48,72.86V93.75H36l1.44-28.81a9.06,9.06,0,0,1,8.75-8.74h60.34l2.35,2.29H47.38a2.3,2.3,0,0,0-2.21,2.38v.25a2.3,2.3,0,0,0,2.21,2.38H115A11.58,11.58,0,0,1,123.41,69h0A7.79,7.79,0,0,1,124.48,72.86Z" transform="translate(-16.86 -49.77)"/><rect class="cls-5" x="29.03" y="17.48" width="54.86" height="16.36" rx="0.76" ry="0.76"/><ellipse class="cls-6" cx="43.76" cy="65.48" rx="9.04" ry="9.7"/><ellipse class="cls-7" cx="43.76" cy="65.48" rx="3.99" ry="4.28"/><path class="cls-7" d="M60.62,121.45a6.22,6.22,0,1,1,5.78-6.21A6,6,0,0,1,60.62,121.45Zm0-11.76a5.57,5.57,0,1,0,5.17,5.55A5.38,5.38,0,0,0,60.62,109.69Z" transform="translate(-16.86 -49.77)"/><ellipse class="cls-6" cx="121.72" cy="65.48" rx="9.04" ry="9.7"/><ellipse class="cls-7" cx="121.72" cy="65.48" rx="3.99" ry="4.28"/><path class="cls-7" d="M138.58,121.45a6.22,6.22,0,1,1,5.78-6.21A6,6,0,0,1,138.58,121.45Zm0-11.76a5.57,5.57,0,1,0,5.17,5.55A5.38,5.38,0,0,0,138.58,109.69Z" transform="translate(-16.86 -49.77)"/><path class="cls-8" d="M157.66,110.84a2.84,2.84,0,0,1-.66,2.08,2.45,2.45,0,0,1-1.87.88h-4.37a2.62,2.62,0,0,1-2.51-2.2l-.4-2.1a5.41,5.41,0,0,0-5.2-4.55h-8.22a5.41,5.41,0,0,0-5.2,4.55l-.4,2.1a2.61,2.61,0,0,1-2.51,2.2h-1.85V99.19h32.24Z" transform="translate(-16.86 -49.77)"/><path class="cls-8" d="M122.79,99.19v14.61H73.13a2.62,2.62,0,0,1-2.51-2.2l-.4-2.1a5.41,5.41,0,0,0-5.2-4.55H56.81a5.41,5.41,0,0,0-5.2,4.55l-.4,2.1a2.61,2.61,0,0,1-2.51,2.2H37.44a2.46,2.46,0,0,1-1.86-.87,2.84,2.84,0,0,1-.67-2.05l.78-11.69Z" transform="translate(-16.86 -49.77)"/><rect class="cls-8" x="105.93" y="49.42" width="1.69" height="14.61"/><polygon class="cls-8" points="105.93 43.99 105.93 47.61 18.95 47.61 19.19 43.99 105.93 43.99"/><path class="cls-8" d="M156.56,97.37H124.48V93.75h30.47A7,7,0,0,1,156.56,97.37Z" transform="translate(-16.86 -49.77)"/><rect class="cls-8" x="105.93" y="43.99" width="1.69" height="3.62"/><path class="cls-9" d="M111.09,78,121.51,89.2h-7.75a2.77,2.77,0,0,1-2.67-2.87Z" transform="translate(-16.86 -49.77)"/><path class="cls-9" d="M116,73.34l14.73,15.81a1.94,1.94,0,0,1-.41,0h-1.92L113.59,73.35H116Z" transform="translate(-16.86 -49.77)"/><path class="cls-9" d="M131.76,86a2.12,2.12,0,0,1,.2,2.12v0L118.22,73.34h3.33a2.17,2.17,0,0,1,1.75.92Z" transform="translate(-16.86 -49.77)"/><path class="cls-9" d="M47.71,69.66l11.65,12.5H49.52a2.3,2.3,0,0,1-2.21-2.38V71A2.47,2.47,0,0,1,47.71,69.66Z" transform="translate(-16.86 -49.77)"/><polygon class="cls-9" points="39.13 18.88 51.72 32.4 49.35 32.4 36.75 18.88 39.13 18.88"/><polygon class="cls-9" points="70.85 32.4 53.98 32.4 41.38 18.88 58.25 18.88 70.85 32.4"/><polygon class="cls-9" points="67.48 18.88 80.07 32.4 77.7 32.4 65.1 18.88 67.48 18.88"/><path class="cls-9" d="M97.29,68.64A2.3,2.3,0,0,1,99.51,71v8.77a2.44,2.44,0,0,1-.82,1.84l-12.1-13Z" transform="translate(-16.86 -49.77)"/><path class="cls-10" d="M16.83,59.56H32.47a0,0,0,0,1,0,0v4.71a0,0,0,0,1,0,0H16.83a.22.22,0,0,1-.22-.22V59.78a.22.22,0,0,1,.22-.22Z"/><path class="cls-11" d="M160.48,111.37A2.58,2.58,0,0,1,158,114h-6.62L149,107h9a2.58,2.58,0,0,1,2.49,2.67Z" transform="translate(-16.86 -49.77)"/><rect class="cls-5" x="55.59" y="17.84" width="1.91" height="15.94"/><rect class="cls-12" x="34.06" y="34.5" width="1.9" height="7.7"/><polygon class="cls-12" points="38.49 39.72 37.41 41.39 31.53 36.98 32.62 35.3 38.49 39.72"/><polygon class="cls-12" points="31.53 39.72 32.62 41.39 38.49 36.98 37.41 35.3 31.53 39.72"/><text class="cls-13" transform="translate(46.29 40.76) scale(0.93 1)">A<tspan class="cls-14" x="3.83" y="0">MBULANCE</tspan></text><path class="cls-15" d="M115,63.5H47.38a2.3,2.3,0,0,1-2.21-2.38v-.25a2.3,2.3,0,0,1,2.21-2.38h61.56l5.08,5A8.83,8.83,0,0,1,115,63.5Z" transform="translate(-16.86 -49.77)"/><rect class="cls-16" x="77.17" y="4.91" width="6.94" height="1.52"/><path class="cls-2" d="M100.75,54.68h-6.5l.58-3.49a1.64,1.64,0,0,1,1.58-1.42h2.18a1.64,1.64,0,0,1,1.58,1.42Z" transform="translate(-16.86 -49.77)"/><path class="cls-17" d="M66.21,82.16H59.36L47.71,69.66a2.17,2.17,0,0,1,1.81-1h4.09Z" transform="translate(-16.86 -49.77)"/><polygon class="cls-17" points="53.98 32.4 51.72 32.4 39.13 18.88 41.38 18.88 53.98 32.4"/><path class="cls-17" d="M128.36,89.2h-6.85L111.09,78v-1.8a2.79,2.79,0,0,1,2.5-2.86Z" transform="translate(-16.86 -49.77)"/><path class="cls-17" d="M132,88.09a1.89,1.89,0,0,1-1.26,1.06L116,73.34h2.25Z" transform="translate(-16.86 -49.77)"/><polygon class="cls-17" points="77.7 32.4 70.85 32.4 58.25 18.88 65.1 18.88 77.7 32.4"/><path class="cls-17" d="M98.69,81.63a2.11,2.11,0,0,1-1.4.53h-.36L84.34,68.64h2.25Z" transform="translate(-16.86 -49.77)"/><rect class="cls-18" x="136.53" y="45.8" width="2.47" height="7.48"/><path class="cls-11" d="M153.39,103a2.22,2.22,0,0,1-2.14-2.29v-2.9a2.22,2.22,0,0,1,2.14-2.29Z" transform="translate(-16.86 -49.77)"/><g class="cls-19"><path class="cls-11" d="M107.61,110.51h-.67V73.62A5.47,5.47,0,0,1,112.19,68h8.91l16.37,22.1V105h-.67V90.33l-16-21.63h-8.59a4.77,4.77,0,0,0-4.58,4.92Z" transform="translate(-16.86 -49.77)"/></g><rect class="cls-10" x="55.76" y="59.56" width="55.01" height="4.71"/><rect class="cls-2" x="24.54" y="14.95" width="6.31" height="3.08" rx="0.14" ry="0.14"/><path class="cls-6" d="M131.09,82.72A2.22,2.22,0,0,1,133.22,85v2.9a2.22,2.22,0,0,1-2.14,2.29Z" transform="translate(-16.86 -49.77)"/><path class="cls-8" d="M22.65,146H21l-1.28-9.82L18.47,146H16.86L19,131.79h.79c.61,0,.71.39.77.77Z" transform="translate(-16.86 -49.77)"/><path class="cls-8" d="M34.91,146H33.46v-7.35l-1.1,4.89h-.45c-.86,0-1-.86-1.1-1.16L30,138.69V146H28.51V131.79h.9a.64.64,0,0,1,.65.53l1.69,8.19,1.61-8.21a.64.64,0,0,1,.65-.51h.9Z" transform="translate(-16.86 -49.77)"/><path class="cls-8" d="M46.35,140.08v4.18A1.81,1.81,0,0,1,44.54,146H41.89V131.79h2.65a1.81,1.81,0,0,1,1.81,1.79v4.18a1.22,1.22,0,0,1-.84,1.16A1.22,1.22,0,0,1,46.35,140.08ZM44.88,134a.69.69,0,0,0-.75-.73h-.79v5h.79c.39,0,.75-.18.75-.83Zm0,6.42c0-.63-.37-.81-.75-.81h-.79v5h.79a.69.69,0,0,0,.75-.75Z" transform="translate(-16.86 -49.77)"/><path class="cls-8" d="M58.69,144.38a1.75,1.75,0,0,1-1.75,1.73v0H55.82A1.77,1.77,0,0,1,54,144.38V132.19a.44.44,0,0,1,.43-.41h1v12.32a.76.76,0,0,0,.75.77h.22a.77.77,0,0,0,.77-.77V131.79h1.47Z" transform="translate(-16.86 -49.77)"/><path class="cls-8" d="M71.52,144.6c-.16.37-.41.94-.47,1.06a.83.83,0,0,1-.79.39h-3.5V131.79h1a.47.47,0,0,1,.45.45V144.6Z" transform="translate(-16.86 -49.77)"/><path class="cls-8" d="M82.25,146H80.65l-1.28-9.82L78.08,146H76.47l2.16-14.26h.79c.61,0,.71.39.77.77Z" transform="translate(-16.86 -49.77)"/><path class="cls-8" d="M93.52,146h-.67a1,1,0,0,1-1-.92l-1.57-7v8H88.83V131.79h.67c.81,0,1,.39,1,.79L92.05,140v-8.21h1.47Z" transform="translate(-16.86 -49.77)"/><path class="cls-8" d="M105.67,144.38a1.82,1.82,0,0,1-1.75,1.81H103a1.82,1.82,0,0,1-1.83-1.81V133.46a1.82,1.82,0,0,1,1.83-1.81h.9a1.81,1.81,0,0,1,1.75,1.81v2.18a.77.77,0,0,1-.39.77l-1.06.49v-3.2a.78.78,0,0,0-1.57,0v10.41a.78.78,0,1,0,1.57,0V142.2a.83.83,0,0,1,.39-.79l1.06-.47Z" transform="translate(-16.86 -49.77)"/><path class="cls-8" d="M118.48,144.6c-.16.37-.41.94-.47,1.06a.83.83,0,0,1-.79.39H114V132.19a.45.45,0,0,1,.45-.41h3.81l-.49,1.06a.78.78,0,0,1-.77.41h-1.18a.33.33,0,0,0-.35.35v4.24h2.2c-.16.37-.41,1-.47,1.08a.79.79,0,0,1-.77.39h-.61a.36.36,0,0,0-.35.35v5Z" transform="translate(-16.86 -49.77)"/><path class="cls-20" d="M142.33,144.38a1.82,1.82,0,0,1-1.75,1.81h-.9a1.82,1.82,0,0,1-1.83-1.81V133.46a1.82,1.82,0,0,1,1.83-1.81h.9a1.81,1.81,0,0,1,1.75,1.81v2.18a.77.77,0,0,1-.39.77l-1.06.49v-3.2a.78.78,0,0,0-1.57,0v10.41a.78.78,0,1,0,1.57,0V142.2a.83.83,0,0,1,.39-.79l1.06-.47Z" transform="translate(-16.86 -49.77)"/><path class="cls-20" d="M154.75,146h-1.61l-1.28-9.82L150.58,146H149l2.16-14.26h.79c.61,0,.71.39.77.77Z" transform="translate(-16.86 -49.77)"/><path class="cls-20" d="M165.89,140.08v4.18a1.81,1.81,0,0,1-1.81,1.79h-2.65V131.79h2.65a1.81,1.81,0,0,1,1.81,1.79v4.18a1.22,1.22,0,0,1-.83,1.16A1.22,1.22,0,0,1,165.89,140.08ZM164.43,134a.69.69,0,0,0-.75-.73h-.79v5h.79c.39,0,.75-.18.75-.83Zm0,6.42c0-.63-.37-.81-.75-.81h-.79v5h.79a.69.69,0,0,0,.75-.75Z" transform="translate(-16.86 -49.77)"/><path class="cls-20" d="M176.67,135.37v-1.65a.77.77,0,1,0-1.55,0v1.37a4.78,4.78,0,0,0,.63,1.91l1.75,3.3a4.57,4.57,0,0,1,.65,2.26v1.81a1.82,1.82,0,0,1-1.83,1.81h-.92a1.85,1.85,0,0,1-1.77-1.81v-1.47a.84.84,0,0,1,.41-.79c.12,0,.71-.31,1.08-.47v2.49a.77.77,0,1,0,1.55,0v-1.63a4.93,4.93,0,0,0-.63-1.94l-1.75-3.28a4.58,4.58,0,0,1-.65-2.26v-1.47a1.89,1.89,0,0,1,1.83-1.89h.92a1.9,1.9,0,0,1,1.77,1.89v.55a.84.84,0,0,1-.41.79C177.63,134.94,177.05,135.21,176.67,135.37Z" transform="translate(-16.86 -49.77)"/></g></g></svg>