<svg xmlns="http://www.w3.org/2000/svg" viewBox="0 0 132.12 77.77"><defs><style>.cls-1{isolation:isolate;}.cls-13,.cls-2{fill:#fd2202;}.cls-3{fill:#2f2f2f;}.cls-4{fill:#eefcff;}.cls-5{fill:#aaa;}.cls-6{fill:#131313;}.cls-7{fill:#999;}.cls-20,.cls-8{fill:#d32527;}.cls-9{fill:#00b2ff;}.cls-10{fill:#c6c6c6;}.cls-11{fill:#919191;}.cls-12{fill:#2280c8;}.cls-13{font-size:4.95px;font-family:Bungee-Regular, Bungee Regular;}.cls-14{letter-spacing:0em;}.cls-15{fill:#d7d7d7;}.cls-16{fill:#848484;}.cls-17{fill:#71daff;}.cls-18{fill:#ffa64d;}.cls-19{opacity:0.5;mix-blend-mode:multiply;}.cls-20{font-size:16.01px;font-family:Ailerons-Regular, Ailerons;}</style></defs><title>logo2</title><g class="cls-1"><g id="Layer_1" data-name="Layer 1"><path class="cls-2" d="M57.37,103.23h-.92a1.37,1.37,0,0,1-1-.5,1.59,1.59,0,0,1-.36-1.17l.26-2.85a1.46,1.46,0,0,1,1.41-1.37h.66Z" transform="translate(-39.49 -61.33)"/><rect class="cls-3" x="23.37" y="41.9" width="85.1" height="6.84"/><path class="cls-4" d="M125,95.92V75.79l.48.65h0L137,91.88l10.75,2.46a4.86,4.86,0,0,1,2.59,1.58Z" transform="translate(-39.49 -61.33)"/><path class="cls-4" d="M151.72,100.19H125V98.77H151.6c0,.1,0,.2,0,.3Z" transform="translate(-39.49 -61.33)"/><polygon class="cls-4" points="86.89 37.44 86.89 38.86 17.06 38.86 17.16 37.44 86.89 37.44"/><path class="cls-4" d="M126.37,79.49V95.92H56.84L58,73.26a7.12,7.12,0,0,1,6.88-6.87h47.45l1.85,1.8H65.75A1.81,1.81,0,0,0,64,70.06v.2a1.81,1.81,0,0,0,1.74,1.87h53.17a9.11,9.11,0,0,1,6.61,4.31h0A6.13,6.13,0,0,1,126.37,79.49Z" transform="translate(-39.49 -61.33)"/><rect class="cls-5" x="25.09" y="13.75" width="43.14" height="12.86" rx="0.76" ry="0.76"/><ellipse class="cls-6" cx="36.67" cy="51.49" rx="7.11" ry="7.63"/><ellipse class="cls-7" cx="36.67" cy="51.49" rx="3.14" ry="3.37"/><path class="cls-7" d="M76.15,117.7a4.89,4.89,0,1,1,4.55-4.88A4.73,4.73,0,0,1,76.15,117.7Zm0-9.25a4.38,4.38,0,1,0,4.07,4.37A4.23,4.23,0,0,0,76.15,108.45Z" transform="translate(-39.49 -61.33)"/><ellipse class="cls-6" cx="97.97" cy="51.49" rx="7.11" ry="7.63"/><ellipse class="cls-7" cx="97.97" cy="51.49" rx="3.14" ry="3.37"/><path class="cls-7" d="M137.46,117.7a4.89,4.89,0,1,1,4.55-4.88A4.73,4.73,0,0,1,137.46,117.7Zm0-9.25a4.38,4.38,0,1,0,4.07,4.37A4.23,4.23,0,0,0,137.46,108.45Z" transform="translate(-39.49 -61.33)"/><path class="cls-8" d="M152.46,109.35a2.24,2.24,0,0,1-.52,1.63,1.93,1.93,0,0,1-1.47.69H147a2.06,2.06,0,0,1-2-1.73l-.31-1.65a4.26,4.26,0,0,0-4.09-3.58H134.2a4.26,4.26,0,0,0-4.09,3.58L129.8,110a2.06,2.06,0,0,1-2,1.73h-1.45V100.19h25.35Z" transform="translate(-39.49 -61.33)"/><path class="cls-8" d="M125,100.19v11.49H86A2.06,2.06,0,0,1,84,110l-.31-1.65a4.26,4.26,0,0,0-4.09-3.58H73.16a4.26,4.26,0,0,0-4.09,3.58L68.76,110a2.06,2.06,0,0,1-2,1.73H57.93a1.94,1.94,0,0,1-1.46-.68,2.23,2.23,0,0,1-.53-1.61l.62-9.19Z" transform="translate(-39.49 -61.33)"/><rect class="cls-8" x="85.56" y="38.86" width="1.33" height="11.49"/><polygon class="cls-8" points="85.56 34.59 85.56 37.44 17.16 37.44 17.35 34.59 85.56 34.59"/><path class="cls-8" d="M151.6,98.77H126.37V95.92h24A5.47,5.47,0,0,1,151.6,98.77Z" transform="translate(-39.49 -61.33)"/><rect class="cls-8" x="85.56" y="34.59" width="1.33" height="2.85"/><path class="cls-9" d="M115.84,83.55,124,92.34h-6.09a2.18,2.18,0,0,1-2.1-2.25Z" transform="translate(-39.49 -61.33)"/><path class="cls-9" d="M119.67,79.87,131.26,92.3a1.53,1.53,0,0,1-.32,0h-1.51L117.81,79.88h1.86Z" transform="translate(-39.49 -61.33)"/><path class="cls-9" d="M132.1,89.79a1.67,1.67,0,0,1,.16,1.66h0l-10.8-11.6h2.62a1.7,1.7,0,0,1,1.37.72Z" transform="translate(-39.49 -61.33)"/><path class="cls-9" d="M66,77l9.16,9.83H67.43a1.81,1.81,0,0,1-1.74-1.87V78A1.94,1.94,0,0,1,66,77Z" transform="translate(-39.49 -61.33)"/><polygon class="cls-9" points="33.03 14.84 42.93 25.47 41.06 25.47 31.16 14.84 33.03 14.84"/><polygon class="cls-9" points="57.97 25.47 44.7 25.47 34.8 14.84 48.06 14.84 57.97 25.47"/><polygon class="cls-9" points="55.32 14.84 65.22 25.47 63.36 25.47 53.45 14.84 55.32 14.84"/><path class="cls-9" d="M105,76.18A1.81,1.81,0,0,1,106.73,78v6.89a1.92,1.92,0,0,1-.64,1.45L96.58,76.18Z" transform="translate(-39.49 -61.33)"/><path class="cls-10" d="M15.54,46.84H27.79a0,0,0,0,1,0,0v3.7a0,0,0,0,1,0,0H15.54a.22.22,0,0,1-.22-.22V47.06A.22.22,0,0,1,15.54,46.84Z"/><path class="cls-11" d="M154.68,109.77a2,2,0,0,1-2,2.1h-5.21l-1.86-5.55h7.07a2,2,0,0,1,2,2.1Z" transform="translate(-39.49 -61.33)"/><rect class="cls-5" x="45.97" y="14.03" width="1.5" height="12.53"/><rect class="cls-12" x="29.04" y="27.13" width="1.49" height="6.05"/><polygon class="cls-12" points="32.53 31.23 31.67 32.55 27.05 29.07 27.91 27.76 32.53 31.23"/><polygon class="cls-12" points="27.05 31.23 27.91 32.55 32.53 29.07 31.67 27.76 27.05 31.23"/><text class="cls-13" transform="translate(38.66 32.05) scale(0.93 1)"><tspan class="cls-14">A</tspan><tspan x="3.01" y="0">MBULANCE</tspan></text><path class="cls-15" d="M118.91,72.13H65.75A1.81,1.81,0,0,1,64,70.26v-.2a1.81,1.81,0,0,1,1.74-1.87h48.41l4,3.89A7,7,0,0,1,118.91,72.13Z" transform="translate(-39.49 -61.33)"/><rect class="cls-16" x="62.94" y="3.86" width="5.45" height="1.2"/><path class="cls-2" d="M107.71,65.2H102.6l.46-2.75a1.29,1.29,0,0,1,1.24-1.12H106a1.29,1.29,0,0,1,1.24,1.12Z" transform="translate(-39.49 -61.33)"/><path class="cls-17" d="M80.55,86.81H75.16L66,77a1.71,1.71,0,0,1,1.43-.8h3.22Z" transform="translate(-39.49 -61.33)"/><polygon class="cls-17" points="44.7 25.47 42.93 25.47 33.03 14.84 34.8 14.84 44.7 25.47"/><path class="cls-17" d="M129.42,92.34H124l-8.19-8.79V82.13a2.2,2.2,0,0,1,2-2.25Z" transform="translate(-39.49 -61.33)"/><path class="cls-17" d="M132.25,91.47a1.49,1.49,0,0,1-1,.83L119.67,79.87h1.77Z" transform="translate(-39.49 -61.33)"/><polygon class="cls-17" points="63.36 25.47 57.97 25.47 48.06 14.84 53.45 14.84 63.36 25.47"/><path class="cls-17" d="M106.09,86.39a1.66,1.66,0,0,1-1.1.42h-.28l-9.9-10.63h1.77Z" transform="translate(-39.49 -61.33)"/><rect class="cls-18" x="109.62" y="36.01" width="1.95" height="5.89"/><path class="cls-11" d="M149.11,103.23a1.75,1.75,0,0,1-1.68-1.8V99.15a1.75,1.75,0,0,1,1.68-1.8Z" transform="translate(-39.49 -61.33)"/><g class="cls-19"><path class="cls-11" d="M113.1,109.09h-.53v-29a4.3,4.3,0,0,1,4.13-4.44h7L136.59,93v11.72h-.53V93.23l-12.6-17h-6.75a3.75,3.75,0,0,0-3.6,3.87Z" transform="translate(-39.49 -61.33)"/></g><rect class="cls-10" x="46.1" y="46.84" width="43.26" height="3.7"/><rect class="cls-2" x="21.56" y="11.75" width="4.96" height="2.42" rx="0.14" ry="0.14"/><path class="cls-6" d="M131.57,87.24a1.75,1.75,0,0,1,1.68,1.8v2.28a1.75,1.75,0,0,1-1.68,1.8Z" transform="translate(-39.49 -61.33)"/><text class="cls-20" transform="translate(0 75.71)">Ambulance cabs</text></g></g></svg>